<?xml version="1.0" standalone="no"?><!DOCTYPE svg PUBLIC "-//W3C//DTD SVG 1.1//EN" "http://www.w3.org/Graphics/SVG/1.1/DTD/svg11.dtd" ><svg version="1.1" xmlns="http://www.w3.org/2000/svg"><defs><font horiz-adv-x="0" id="font"><font-face ascent="780" bbox="-70 -230 1011 1070" cap-height="780" descent="-220" font-family="Self Modern" font-stretch="normal" font-style="normal" font-weight="400" units-per-em="1000" x-height="500" /><missing-glyph horiz-adv-x="500" /><glyph glyph-name=".null" horiz-adv-x="500" /><glyph d="M280 0V30C190 25 146 33 170 100L235 280H534L601 90C627 15 480 30 480 30V0H801V30C801 30 703 15 680 80L420 790L380 760L130 100C105 34 90 25 0 30V0ZM246 310 387 699 524 310Z" glyph-name="A" horiz-adv-x="800" unicode="A" /><glyph d="M391 701 488 410H340V380H498L601 90C627 15 480 30 480 30V0H931L980 180L960 190C960 190 910 30 760 30C710 30 692 47 680 80L568 380H710C810 380 810 221 810 221H831V550H810C810 550 810 410 710 410H557L430 750H731C880 750 931 590 931 590L950 601L901 780H420L380 760L130 100C105 34 90 25 0 30V0H280V30C190 25 146 33 170 100Z" glyph-name="AE" horiz-adv-x="1000" unicode="&#198;" /><glyph d="M476 1030 305 841 325 820 495 1011ZM280 0V30C190 25 146 33 170 100L235 280H534L601 90C627 15 480 30 480 30V0H801V30C801 30 703 15 680 80L420 790L380 760L130 100C105 34 90 25 0 30V0ZM246 310 387 699 524 310Z" glyph-name="Aacute" horiz-adv-x="800" unicode="&#193;" /><glyph d="M280 1030H250C250 948 300 870 400 870C500 870 550 948 550 1030H520C520 965 480 910 400 910C320 910 280 965 280 1030ZM280 0V30C190 25 146 33 170 100L235 280H534L601 90C627 15 480 30 480 30V0H801V30C801 30 703 15 680 80L420 790L380 760L130 100C105 34 90 25 0 30V0ZM246 310 387 699 524 310Z" glyph-name="Abreve" horiz-adv-x="800" unicode="&#258;" /><glyph d="M230 841 250 820 401 990 550 820 571 841 401 1030ZM280 0V30C190 25 146 33 170 100L235 280H534L601 90C627 15 480 30 480 30V0H801V30C801 30 703 15 680 80L420 790L380 760L130 100C105 34 90 25 0 30V0ZM246 310 387 699 524 310Z" glyph-name="Acircumflex" horiz-adv-x="800" unicode="&#194;" /><glyph d="M240 941C240 901 270 880 300 880C330 880 360 901 360 941C360 980 330 1001 300 1001C271 1001 240 980 240 941ZM440 941C440 901 470 880 500 880C530 880 560 901 560 941C560 980 530 1001 500 1001C471 1001 440 980 440 941ZM280 0V30C190 25 146 33 170 100L235 280H534L601 90C627 15 480 30 480 30V0H801V30C801 30 703 15 680 80L420 790L380 760L130 100C105 34 90 25 0 30V0ZM246 310 387 699 524 310Z" glyph-name="Adieresis" horiz-adv-x="800" unicode="&#196;" /><glyph d="M305 1011 476 820 495 841 325 1030ZM280 0V30C190 25 146 33 170 100L235 280H534L601 90C627 15 480 30 480 30V0H801V30C801 30 703 15 680 80L420 790L380 760L130 100C105 34 90 25 0 30V0ZM246 310 387 699 524 310Z" glyph-name="Agrave" horiz-adv-x="800" unicode="&#192;" /><glyph d="M239 870H560V900H239ZM280 0V30C190 25 146 33 170 100L235 280H534L601 90C627 15 480 30 480 30V0H801V30C801 30 703 15 680 80L420 790L380 760L130 100C105 34 90 25 0 30V0ZM246 310 387 699 524 310Z" glyph-name="Amacron" horiz-adv-x="800" unicode="&#256;" /><glyph d="M511 931C511 992 461 1031 400 1031C340 1031 290 992 290 931C290 869 340 831 400 831C461 831 511 869 511 931ZM470 931C470 886 445 850 400 850C356 850 330 886 330 931C330 974 356 1010 400 1010C445 1010 470 974 470 931ZM280 0V30C190 25 146 33 170 100L235 280H534L601 90C627 15 480 30 480 30V0H801V30C801 30 703 15 680 80L420 790L380 760L130 100C105 34 90 25 0 30V0ZM246 310 387 699 524 310Z" glyph-name="Aring" horiz-adv-x="800" unicode="&#197;" /><glyph d="M235 941C235 941 245 871 316 871C385 871 425 931 486 931C545 931 556 871 556 871L565 890C565 890 556 960 486 960C425 960 385 901 316 901C255 901 245 960 245 960ZM280 0V30C190 25 146 33 170 100L235 280H534L601 90C627 15 480 30 480 30V0H801V30C801 30 703 15 680 80L420 790L380 760L130 100C105 34 90 25 0 30V0ZM246 310 387 699 524 310Z" glyph-name="Atilde" horiz-adv-x="800" unicode="&#195;" /><glyph d="M670 210C670 319 589 386 465 414C571 440 650 501 650 590C650 720 527 780 336 780H20V750C20 750 168 760 168 690V90C168 20 20 30 20 30V0H376C536 0 670 60 670 210ZM232 690C232 747 319 750 329 750C466 750 567 701 567 590C567 470 476 430 336 430H232ZM306 400C486 400 586 361 586 210C586 70 476 30 346 30H312C280 32 232 43 232 90V400Z" glyph-name="B" horiz-adv-x="700" unicode="B" /><glyph d="M380 790C180 790 40 620 40 391C40 160 180 -10 380 -10C640 -10 690 260 690 260L670 270C670 270 631 40 391 40C230 40 124 180 124 391C124 601 221 760 391 760C550 760 610 640 640 570L661 580L601 790L561 740C561 740 500 790 380 790Z" glyph-name="C" horiz-adv-x="700" unicode="C" /><glyph glyph-name="CR" horiz-adv-x="500" /><glyph d="M467 1030 296 841 316 820 486 1011ZM350 790C150 790 10 620 10 391C10 160 150 -10 350 -10C610 -10 660 260 660 260L640 270C640 270 601 40 361 40C200 40 94 180 94 391C94 601 191 760 361 760C520 760 580 640 610 570L631 580L571 790L531 740C531 740 470 790 350 790Z" glyph-name="Cacute" horiz-adv-x="700" unicode="&#262;" /><glyph d="M361 820 531 1009 510 1030 361 860 210 1030 190 1009ZM350 790C150 790 10 620 10 391C10 160 150 -10 350 -10C610 -10 660 260 660 260L640 270C640 270 601 40 361 40C200 40 94 180 94 391C94 601 191 760 361 760C520 760 580 640 610 570L631 580L571 790L531 740C531 740 470 790 350 790Z" glyph-name="Ccaron" horiz-adv-x="700" unicode="&#268;" /><glyph d="M245 -140C245 -140 255 -210 345 -210C396 -210 445 -180 445 -130C445 -70 385 -50 345 -70L399 -10C642 3 690 260 690 260L670 270C670 270 631 40 391 40C230 40 124 180 124 391C124 601 221 760 391 760C550 760 610 640 640 570L661 580L601 790L561 740C561 740 500 790 380 790C180 790 40 620 40 391C40 164 175 -4 370 -10L315 -70L326 -90C365 -80 396 -100 396 -130C396 -160 375 -180 335 -180C275 -180 265 -121 265 -121Z" glyph-name="Ccedilla" horiz-adv-x="700" unicode="&#199;" /><glyph d="M180 841 200 820 351 990 500 820 521 841 351 1030ZM350 790C150 790 10 620 10 391C10 160 150 -10 350 -10C610 -10 660 260 660 260L640 270C640 270 601 40 361 40C200 40 94 180 94 391C94 601 191 760 361 760C520 760 580 640 610 570L631 580L571 790L531 740C531 740 470 790 350 790Z" glyph-name="Ccircumflex" horiz-adv-x="700" unicode="&#264;" /><glyph d="M290 940C290 900 321 880 350 880C380 880 410 900 410 940C410 981 380 1000 350 1000C321 1000 290 981 290 940ZM350 790C150 790 10 620 10 391C10 160 150 -10 350 -10C610 -10 660 260 660 260L640 270C640 270 601 40 361 40C200 40 94 180 94 391C94 601 191 760 361 760C520 760 580 640 610 570L631 580L571 790L531 740C531 740 470 790 350 790Z" glyph-name="Cdotaccent" horiz-adv-x="700" unicode="&#266;" /><glyph d="M391 780H20V750C20 750 168 760 168 690V90C168 21 20 30 20 30V0H380C610 0 760 160 760 391C760 620 620 780 391 780ZM232 690C232 750 330 750 330 750H350C590 750 676 601 676 391C676 170 570 30 370 30C310 30 232 30 232 90Z" glyph-name="D" horiz-adv-x="800" unicode="D" /><glyph d="M361 820 531 1009 510 1030 361 860 210 1030 190 1009ZM391 780H20V750C20 750 168 760 168 690V90C168 21 20 30 20 30V0H380C610 0 760 160 760 391C760 620 620 780 391 780ZM232 690C232 750 330 750 330 750H350C590 750 676 601 676 391C676 170 570 30 370 30C310 30 232 30 232 90Z" glyph-name="Dcaron" horiz-adv-x="800" unicode="&#270;" /><glyph d="M232 90V380H410C510 380 510 221 510 221H531V550H510C510 550 510 410 410 410H232V690C232 750 330 750 330 750H430C580 750 631 590 631 590L650 601L601 780H20V750C20 750 168 760 168 690V90C168 21 20 30 20 30V0H631L680 180L661 190C661 190 610 30 461 30H360C300 30 232 30 232 90Z" glyph-name="E" horiz-adv-x="700" unicode="E" /><glyph d="M370 760C550 760 610 640 639 570L659 580L600 790L560 740C560 740 500 790 370 790C200 790 90 701 90 601C90 440 275 413 280 412C291 410 291 402 280 402C274 402 60 380 60 200C60 80 160 -10 330 -10C580 -10 701 160 750 230L731 240C731 240 620 40 361 40C221 40 140 121 140 230C140 350 260 391 380 391H570V420H380C291 420 170 461 170 590C170 680 240 760 370 760Z" glyph-name="E.alt" horiz-adv-x="700" /><glyph d="M426 1030 255 841 275 820 445 1011ZM232 90V380H410C510 380 510 221 510 221H531V550H510C510 550 510 410 410 410H232V690C232 750 330 750 330 750H430C580 750 631 590 631 590L650 601L601 780H20V750C20 750 168 760 168 690V90C168 21 20 30 20 30V0H631L680 180L661 190C661 190 610 30 461 30H360C300 30 232 30 232 90Z" glyph-name="Eacute" horiz-adv-x="700" unicode="&#201;" /><glyph d="M230 1030H200C200 948 250 870 350 870C450 870 500 948 500 1030H470C470 965 430 910 350 910C270 910 230 965 230 1030ZM232 90V380H410C510 380 510 221 510 221H531V550H510C510 550 510 410 410 410H232V690C232 750 330 750 330 750H430C580 750 631 590 631 590L650 601L601 780H20V750C20 750 168 760 168 690V90C168 21 20 30 20 30V0H631L680 180L661 190C661 190 610 30 461 30H360C300 30 232 30 232 90Z" glyph-name="Ebreve" horiz-adv-x="700" unicode="&#276;" /><glyph d="M351 860 521 1049 500 1070 351 900 200 1070 180 1049ZM232 90V380H410C510 380 510 221 510 221H531V550H510C510 550 510 410 410 410H232V690C232 750 330 750 330 750H430C580 750 631 590 631 590L650 601L601 780H20V750C20 750 168 760 168 690V90C168 21 20 30 20 30V0H631L680 180L661 190C661 190 610 30 461 30H360C300 30 232 30 232 90Z" glyph-name="Ecaron" horiz-adv-x="700" unicode="&#282;" /><glyph d="M180 841 200 820 351 990 500 820 521 841 351 1030ZM232 90V380H410C510 380 510 221 510 221H531V550H510C510 550 510 410 410 410H232V690C232 750 330 750 330 750H430C580 750 631 590 631 590L650 601L601 780H20V750C20 750 168 760 168 690V90C168 21 20 30 20 30V0H631L680 180L661 190C661 190 610 30 461 30H360C300 30 232 30 232 90Z" glyph-name="Ecircumflex" horiz-adv-x="700" unicode="&#202;" /><glyph d="M190 941C190 901 220 880 250 880C280 880 310 901 310 941C310 980 280 1001 250 1001C221 1001 190 980 190 941ZM390 941C390 901 420 880 450 880C480 880 510 901 510 941C510 980 480 1001 450 1001C421 1001 390 980 390 941ZM232 90V380H410C510 380 510 221 510 221H531V550H510C510 550 510 410 410 410H232V690C232 750 330 750 330 750H430C580 750 631 590 631 590L650 601L601 780H20V750C20 750 168 760 168 690V90C168 21 20 30 20 30V0H631L680 180L661 190C661 190 610 30 461 30H360C300 30 232 30 232 90Z" glyph-name="Edieresis" horiz-adv-x="700" unicode="&#203;" /><glyph d="M290 940C290 900 321 880 350 880C380 880 410 900 410 940C410 981 380 1000 350 1000C321 1000 290 981 290 940ZM232 90V380H410C510 380 510 221 510 221H531V550H510C510 550 510 410 410 410H232V690C232 750 330 750 330 750H430C580 750 631 590 631 590L650 601L601 780H20V750C20 750 168 760 168 690V90C168 21 20 30 20 30V0H631L680 180L661 190C661 190 610 30 461 30H360C300 30 232 30 232 90Z" glyph-name="Edotaccent" horiz-adv-x="700" unicode="&#278;" /><glyph d="M255 1011 426 820 445 841 275 1030ZM232 90V380H410C510 380 510 221 510 221H531V550H510C510 550 510 410 410 410H232V690C232 750 330 750 330 750H430C580 750 631 590 631 590L650 601L601 780H20V750C20 750 168 760 168 690V90C168 21 20 30 20 30V0H631L680 180L661 190C661 190 610 30 461 30H360C300 30 232 30 232 90Z" glyph-name="Egrave" horiz-adv-x="700" unicode="&#200;" /><glyph d="M189 870H510V900H189ZM232 90V380H410C510 380 510 221 510 221H531V550H510C510 550 510 410 410 410H232V690C232 750 330 750 330 750H430C580 750 631 590 631 590L650 601L601 780H20V750C20 750 168 760 168 690V90C168 21 20 30 20 30V0H631L680 180L661 190C661 190 610 30 461 30H360C300 30 232 30 232 90Z" glyph-name="Emacron" horiz-adv-x="700" unicode="&#274;" /><glyph d="M40 580H168V90C168 21 20 30 20 30V0H380C610 0 760 160 760 391C760 620 620 780 391 780H20V750C20 750 168 760 168 690V610H40ZM350 750C590 750 676 601 676 391C676 170 570 30 370 30C310 30 232 30 232 90V580H360V610H232V750Z" glyph-name="Eth" horiz-adv-x="800" unicode="&#208;" /><glyph d="M0 291H49C84 113 210 -10 380 -10C640 -10 690 260 690 260L670 270C670 270 631 40 391 40C257 40 161 137 133 291H461L470 320H128C125 343 124 366 124 391C124 418 126 445 129 470H500L510 500H134C162 654 252 760 391 760C550 760 610 640 640 570L661 580L601 790L561 740C561 740 500 790 380 790C213 790 88 672 51 500H10L0 470H46C42 445 40 418 40 391C40 367 42 343 45 320H10Z" glyph-name="Euro" horiz-adv-x="700" unicode="&#8364;" /><glyph d="M410 380C510 380 510 221 510 221H531V550H510C510 550 510 410 410 410H232V690C232 750 330 750 330 750H470C620 750 670 590 670 590L690 601L640 780H20V750C20 750 168 760 168 690V90C168 20 20 30 20 30V0H380V30C380 30 232 20 232 90V380Z" glyph-name="F" horiz-adv-x="700" unicode="F" /><glyph d="M630 0V370H260V340H580V300C580 180 560 20 370 20C220 20 124 180 124 391C124 601 221 760 381 760C530 760 580 640 610 570L631 580L571 790L531 740C531 740 480 790 370 790C180 790 40 620 40 391C40 160 170 -10 361 -10C480 -10 549 48 587 120L610 -10Z" glyph-name="G" horiz-adv-x="700" unicode="G" /><glyph d="M260 1030H230C230 948 280 870 380 870C480 870 530 948 530 1030H500C500 965 460 910 380 910C300 910 260 965 260 1030ZM630 0V370H260V340H580V300C580 180 560 20 370 20C220 20 124 180 124 391C124 601 221 760 381 760C530 760 580 640 610 570L631 580L571 790L531 740C531 740 480 790 370 790C180 790 40 620 40 391C40 160 170 -10 361 -10C480 -10 549 48 587 120L610 -10Z" glyph-name="Gbreve" horiz-adv-x="700" unicode="&#286;" /><glyph d="M220 841 240 820 391 990 540 820 561 841 391 1030ZM630 0V370H260V340H580V300C580 180 560 20 370 20C220 20 124 180 124 391C124 601 221 760 381 760C530 760 580 640 610 570L631 580L571 790L531 740C531 740 480 790 370 790C180 790 40 620 40 391C40 160 170 -10 361 -10C480 -10 549 48 587 120L610 -10Z" glyph-name="Gcircumflex" horiz-adv-x="700" unicode="&#284;" /><glyph d="M330 940C330 900 361 880 390 880C420 880 450 900 450 940C450 981 420 1000 390 1000C361 1000 330 981 330 940ZM630 0V370H260V340H580V300C580 180 560 20 370 20C220 20 124 180 124 391C124 601 221 760 381 760C530 760 580 640 610 570L631 580L571 790L531 740C531 740 480 790 370 790C180 790 40 620 40 391C40 160 170 -10 361 -10C480 -10 549 48 587 120L610 -10Z" glyph-name="Gdotaccent" horiz-adv-x="700" unicode="&#288;" /><glyph d="M168 90C168 20 20 30 20 30V0H391V30C391 30 232 20 232 90V380H669V90C669 20 510 30 510 30V0H880V30C880 30 733 20 733 90V690C733 760 880 750 880 750V780H510V750C510 750 669 760 669 690V410H232V690C232 760 391 750 391 750V780H20V750C20 750 168 760 168 690Z" glyph-name="H" horiz-adv-x="900" unicode="H" /><glyph d="M280 841 300 820 451 990 600 820 621 841 451 1030ZM168 90C168 20 20 30 20 30V0H391V30C391 30 232 20 232 90V380H669V90C669 20 510 30 510 30V0H880V30C880 30 733 20 733 90V690C733 760 880 750 880 750V780H510V750C510 750 669 760 669 690V410H232V690C232 760 391 750 391 750V780H20V750C20 750 168 760 168 690Z" glyph-name="Hcircumflex" horiz-adv-x="900" unicode="&#292;" /><glyph d="M168 690V90C168 20 20 30 20 30V0H380V30C380 30 232 20 232 90V690C232 760 380 750 380 750V780H20V750C20 750 168 760 168 690Z" glyph-name="I" horiz-adv-x="400" unicode="I" /><glyph d="M460 40C340 40 350 200 350 200L330 190C330 190 320 -10 480 -10C610 -10 632 110 632 240V690C632 760 780 750 780 750V780H20V750C20 750 168 760 168 690V90C168 20 20 30 20 30V0H370V30C370 30 232 20 232 90V690C232 760 400 750 400 750C400 750 569 760 569 690V230C569 110 550 40 460 40Z" glyph-name="IJ" horiz-adv-x="800" unicode="&#306;" /><glyph d="M275 1030 104 841 124 820 294 1011ZM168 690V90C168 20 20 30 20 30V0H380V30C380 30 232 20 232 90V690C232 760 380 750 380 750V780H20V750C20 750 168 760 168 690Z" glyph-name="Iacute" horiz-adv-x="400" unicode="&#205;" /><glyph d="M30 841 50 820 201 990 350 820 371 841 201 1030ZM168 690V90C168 20 20 30 20 30V0H380V30C380 30 232 20 232 90V690C232 760 380 750 380 750V780H20V750C20 750 168 760 168 690Z" glyph-name="Icircumflex" horiz-adv-x="400" unicode="&#206;" /><glyph d="M40 941C40 901 70 880 100 880C130 880 160 901 160 941C160 980 130 1001 100 1001C71 1001 40 980 40 941ZM240 941C240 901 270 880 300 880C330 880 360 901 360 941C360 980 330 1001 300 1001C271 1001 240 980 240 941ZM168 690V90C168 20 20 30 20 30V0H380V30C380 30 232 20 232 90V690C232 760 380 750 380 750V780H20V750C20 750 168 760 168 690Z" glyph-name="Idieresis" horiz-adv-x="400" unicode="&#207;" /><glyph d="M140 940C140 900 171 880 200 880C230 880 260 900 260 940C260 981 230 1000 200 1000C171 1000 140 981 140 940ZM168 690V90C168 20 20 30 20 30V0H380V30C380 30 232 20 232 90V690C232 760 380 750 380 750V780H20V750C20 750 168 760 168 690Z" glyph-name="Idotaccent" horiz-adv-x="400" unicode="&#304;" /><glyph d="M104 1011 275 820 294 841 124 1030ZM168 690V90C168 20 20 30 20 30V0H380V30C380 30 232 20 232 90V690C232 760 380 750 380 750V780H20V750C20 750 168 760 168 690Z" glyph-name="Igrave" horiz-adv-x="400" unicode="&#204;" /><glyph d="M40 870H361V900H40ZM168 690V90C168 20 20 30 20 30V0H380V30C380 30 232 20 232 90V690C232 760 380 750 380 750V780H20V750C20 750 168 760 168 690Z" glyph-name="Imacron" horiz-adv-x="400" unicode="&#298;" /><glyph d="M35 941C35 941 45 871 116 871C185 871 225 931 286 931C345 931 356 871 356 871L365 890C365 890 356 960 286 960C225 960 185 901 116 901C55 901 45 960 45 960ZM168 690V90C168 20 20 30 20 30V0H380V30C380 30 232 20 232 90V690C232 760 380 750 380 750V780H20V750C20 750 168 760 168 690Z" glyph-name="Itilde" horiz-adv-x="400" unicode="&#296;" /><glyph d="M160 40C40 40 40 200 40 200L20 190C20 190 20 -10 180 -10C310 -10 352 110 352 240V690C352 760 500 750 500 750V780H140V750C140 750 289 760 289 690V230C289 110 250 40 160 40Z" glyph-name="J" horiz-adv-x="500" unicode="J" /><glyph d="M150 841 170 820 321 990 470 820 491 841 321 1030ZM160 40C40 40 40 200 40 200L20 190C20 190 20 -10 180 -10C310 -10 352 110 352 240V690C352 760 500 750 500 750V780H140V750C140 750 289 760 289 690V230C289 110 250 40 160 40Z" glyph-name="Jcircumflex" horiz-adv-x="500" unicode="&#308;" /><glyph d="M168 90C168 20 20 30 20 30V0H380V30C380 30 232 20 232 90V322L350 440L580 90C630 15 480 30 480 30V0H801V30C801 30 701 20 661 80L395 485L590 680C640 731 670 755 760 750V780H480V750C570 755 588 731 540 680L232 363V690C232 760 380 750 380 750V780H20V750C20 750 168 760 168 690Z" glyph-name="K" horiz-adv-x="800" unicode="K" /><glyph d="M380 780H20V750C20 750 168 760 168 690V90C168 21 20 30 20 30V0H640L690 180L670 190C670 190 610 30 440 30H360C301 30 232 30 232 90V690C232 760 380 750 380 750Z" glyph-name="L" horiz-adv-x="700" unicode="L" /><glyph d="M277 1030 106 841 126 820 296 1011ZM380 780H20V750C20 750 168 760 168 690V90C168 21 20 30 20 30V0H640L690 180L670 190C670 190 610 30 440 30H360C301 30 232 30 232 90V690C232 760 380 750 380 750Z" glyph-name="Lacute" horiz-adv-x="700" unicode="&#313;" /><glyph d="M430 731C430 695 454 676 475 676C501 676 510 690 510 690L415 531L435 520L540 696C546 704 550 715 550 731C550 771 520 790 490 790C461 790 430 771 430 731ZM380 780H20V750C20 750 168 760 168 690V90C168 21 20 30 20 30V0H640L690 180L670 190C670 190 610 30 440 30H360C301 30 232 30 232 90V690C232 760 380 750 380 750Z" glyph-name="Lcaron" horiz-adv-x="700" unicode="&#317;" /><glyph d="M380 780H20V750C20 750 168 760 168 690V90C168 21 20 30 20 30V0H640L690 180L670 190C670 190 610 30 440 30H360C301 30 232 30 232 90V690C232 760 380 750 380 750ZM459 450C459 410 490 390 519 390C549 390 579 410 579 450C579 491 549 510 519 510C490 510 459 491 459 450Z" glyph-name="Ldot" horiz-adv-x="700" unicode="&#319;" /><glyph d="M138 90C138 20 10 30 10 30V0H300V30C300 30 172 20 172 90V705L461 -10L758 703V90C758 20 610 30 610 30V0H971V30C971 30 822 20 822 90V690C822 760 971 750 971 750V780H750L476 116L221 780H10V750C10 750 138 760 138 690Z" glyph-name="M" horiz-adv-x="1000" unicode="M" /><glyph d="M148 90C148 20 20 30 20 30V0H310V30C310 30 182 20 182 90V707L638 0H672V690C672 760 801 750 801 750V780H510V750C510 750 638 760 638 690V119L210 780H20V750C20 750 148 760 148 690Z" glyph-name="N" horiz-adv-x="800" unicode="N" /><glyph d="M477 1030 306 841 326 820 496 1011ZM148 90C148 20 20 30 20 30V0H310V30C310 30 182 20 182 90V707L638 0H672V690C672 760 801 750 801 750V780H510V750C510 750 638 760 638 690V119L210 780H20V750C20 750 148 760 148 690Z" glyph-name="Nacute" horiz-adv-x="800" unicode="&#323;" /><glyph d="M401 820 571 1009 550 1030 401 860 250 1030 230 1009ZM148 90C148 20 20 30 20 30V0H310V30C310 30 182 20 182 90V707L638 0H672V690C672 760 801 750 801 750V780H510V750C510 750 638 760 638 690V119L210 780H20V750C20 750 148 760 148 690Z" glyph-name="Ncaron" horiz-adv-x="800" unicode="&#327;" /><glyph d="M235 941C235 941 245 871 316 871C385 871 425 931 486 931C545 931 556 871 556 871L565 890C565 890 556 960 486 960C425 960 385 901 316 901C255 901 245 960 245 960ZM148 90C148 20 20 30 20 30V0H310V30C310 30 182 20 182 90V707L638 0H672V690C672 760 801 750 801 750V780H510V750C510 750 638 760 638 690V119L210 780H20V750C20 750 148 760 148 690Z" glyph-name="Ntilde" horiz-adv-x="800" unicode="&#209;" /><glyph d="M40 391C40 160 190 -10 400 -10C610 -10 760 160 760 391C760 620 610 790 400 790C190 790 40 620 40 391ZM124 391C124 601 230 760 410 760C580 760 676 601 676 391C676 170 570 20 391 20C221 20 124 180 124 391Z" glyph-name="O" horiz-adv-x="800" unicode="O" /><glyph d="M40 391C40 160 190 -10 400 -10C430 -10 458 -7 486 0H931L980 180L960 190C960 190 910 30 760 30H565C681 92 756 221 760 380H801C901 380 901 221 901 221H920V550H901C901 550 901 410 801 410H760C754 564 680 689 565 750H731C880 750 931 590 931 590L950 601L901 780H486C459 787 430 790 400 790C190 790 40 620 40 391ZM124 391C124 601 230 760 410 760C435 760 458 757 480 750C602 713 671 580 676 410H400V380H676C672 165 567 20 391 20C221 20 124 180 124 391Z" glyph-name="OE" horiz-adv-x="1000" unicode="&#338;" /><glyph d="M476 1030 305 841 325 820 495 1011ZM40 391C40 160 190 -10 400 -10C610 -10 760 160 760 391C760 620 610 790 400 790C190 790 40 620 40 391ZM124 391C124 601 230 760 410 760C580 760 676 601 676 391C676 170 570 20 391 20C221 20 124 180 124 391Z" glyph-name="Oacute" horiz-adv-x="800" unicode="&#211;" /><glyph d="M290 1029H270C270 947 310 869 400 869C490 869 530 947 530 1029H510C510 964 470 899 400 899C330 899 290 964 290 1029ZM40 391C40 160 190 -10 400 -10C610 -10 760 160 760 391C760 620 610 790 400 790C190 790 40 620 40 391ZM124 391C124 601 230 760 410 760C580 760 676 601 676 391C676 170 570 20 391 20C221 20 124 180 124 391Z" glyph-name="Obreve" horiz-adv-x="800" unicode="&#334;" /><glyph d="M230 841 250 820 401 990 550 820 571 841 401 1030ZM40 391C40 160 190 -10 400 -10C610 -10 760 160 760 391C760 620 610 790 400 790C190 790 40 620 40 391ZM124 391C124 601 230 760 410 760C580 760 676 601 676 391C676 170 570 20 391 20C221 20 124 180 124 391Z" glyph-name="Ocircumflex" horiz-adv-x="800" unicode="&#212;" /><glyph d="M240 941C240 901 270 880 300 880C330 880 360 901 360 941C360 980 330 1001 300 1001C271 1001 240 980 240 941ZM440 941C440 901 470 880 500 880C530 880 560 901 560 941C560 980 530 1001 500 1001C471 1001 440 980 440 941ZM40 391C40 160 190 -10 400 -10C610 -10 760 160 760 391C760 620 610 790 400 790C190 790 40 620 40 391ZM124 391C124 601 230 760 410 760C580 760 676 601 676 391C676 170 570 20 391 20C221 20 124 180 124 391Z" glyph-name="Odieresis" horiz-adv-x="800" unicode="&#214;" /><glyph d="M305 1011 476 820 495 841 325 1030ZM40 391C40 160 190 -10 400 -10C610 -10 760 160 760 391C760 620 610 790 400 790C190 790 40 620 40 391ZM124 391C124 601 230 760 410 760C580 760 676 601 676 391C676 170 570 20 391 20C221 20 124 180 124 391Z" glyph-name="Ograve" horiz-adv-x="800" unicode="&#210;" /><glyph d="M456 1070 285 881 305 860 475 1051ZM656 1070 485 881 505 860 675 1051ZM40 391C40 160 190 -10 400 -10C610 -10 760 160 760 391C760 620 610 790 400 790C190 790 40 620 40 391ZM124 391C124 601 230 760 410 760C580 760 676 601 676 391C676 170 570 20 391 20C221 20 124 180 124 391Z" glyph-name="Ohungarumlaut" horiz-adv-x="800" unicode="&#336;" /><glyph d="M239 870H560V900H239ZM40 391C40 160 190 -10 400 -10C610 -10 760 160 760 391C760 620 610 790 400 790C190 790 40 620 40 391ZM124 391C124 601 230 760 410 760C580 760 676 601 676 391C676 170 570 20 391 20C221 20 124 180 124 391Z" glyph-name="Omacron" horiz-adv-x="800" unicode="&#332;" /><glyph d="M40 391C40 241 104 116 206 48L160 -40L180 -60L229 33C279 5 337 -10 400 -10C610 -10 760 160 760 391C760 540 696 664 594 733L640 821L620 840L571 747C521 775 463 790 400 790C190 790 40 620 40 391ZM124 391C124 601 230 760 410 760C466 760 514 743 553 712L226 87C160 153 124 263 124 391ZM676 391C676 170 570 20 391 20C335 20 287 38 247 69L574 694C640 628 676 519 676 391Z" glyph-name="Oslash" horiz-adv-x="800" unicode="&#216;" /><glyph d="M235 941C235 941 245 871 316 871C385 871 425 931 486 931C545 931 556 871 556 871L565 890C565 890 556 960 486 960C425 960 385 901 316 901C255 901 245 960 245 960ZM40 391C40 160 190 -10 400 -10C610 -10 760 160 760 391C760 620 610 790 400 790C190 790 40 620 40 391ZM124 391C124 601 230 760 410 760C580 760 676 601 676 391C676 170 570 20 391 20C221 20 124 180 124 391Z" glyph-name="Otilde" horiz-adv-x="800" unicode="&#213;" /><glyph d="M380 30C380 30 232 20 232 90V361H406C567 361 701 420 701 570C701 720 576 780 386 780H20V750C20 750 168 760 168 690V90C168 20 20 30 20 30V0H380ZM232 690C232 750 330 750 330 750H376C516 750 616 701 616 570C616 430 506 391 376 391H232Z" glyph-name="P" horiz-adv-x="700" unicode="P" /><glyph d="M40 391C40 160 190 -10 400 -10C491 -10 571 22 632 77L740 -60L760 -40L653 97C720 169 760 272 760 391C760 620 610 790 400 790C190 790 40 620 40 391ZM124 391C124 601 230 760 410 760C580 760 676 601 676 391C676 292 655 208 616 145L470 331L448 310L598 120C549 56 479 20 391 20C221 20 124 180 124 391Z" glyph-name="Q" horiz-adv-x="800" unicode="Q" /><glyph d="M576 110 405 382C547 390 660 442 660 580C660 730 537 780 346 780H20V750C20 750 168 760 168 690V90C168 20 20 30 20 30V0H380V30C380 30 232 20 232 90V381H332L566 0H700V30C640 25 613 52 576 110ZM232 690C232 750 330 750 330 750H336C476 750 576 711 576 580C576 440 467 411 336 411H232Z" glyph-name="R" horiz-adv-x="700" unicode="R" /><glyph d="M427 1030 256 841 276 820 446 1011ZM576 110 405 382C547 390 660 442 660 580C660 730 537 780 346 780H20V750C20 750 168 760 168 690V90C168 20 20 30 20 30V0H380V30C380 30 232 20 232 90V381H332L566 0H700V30C640 25 613 52 576 110ZM232 690C232 750 330 750 330 750H336C476 750 576 711 576 580C576 440 467 411 336 411H232Z" glyph-name="Racute" horiz-adv-x="700" unicode="&#340;" /><glyph d="M351 820 521 1009 500 1030 351 860 200 1030 180 1009ZM576 110 405 382C547 390 660 442 660 580C660 730 537 780 346 780H20V750C20 750 168 760 168 690V90C168 20 20 30 20 30V0H380V30C380 30 232 20 232 90V381H332L566 0H700V30C640 25 613 52 576 110ZM232 690C232 750 330 750 330 750H336C476 750 576 711 576 580C576 440 467 411 336 411H232Z" glyph-name="Rcaron" horiz-adv-x="700" unicode="&#344;" /><glyph d="M296 -10C436 -10 557 70 557 210C557 521 112 370 112 610C112 720 192 760 282 760C402 760 465 668 514 570L535 580L474 790L434 740C434 740 372 790 282 790C142 790 52 710 52 601C52 290 496 440 496 190C496 60 394 20 304 20C161 20 98 130 52 210L32 200L92 -10L132 40C132 40 196 -10 296 -10Z" glyph-name="S" horiz-adv-x="600" unicode="S" /><glyph d="M377 1030 206 841 226 820 396 1011ZM296 -10C436 -10 557 70 557 210C557 521 112 370 112 610C112 720 192 760 282 760C402 760 465 668 514 570L535 580L474 790L434 740C434 740 372 790 282 790C142 790 52 710 52 601C52 290 496 440 496 190C496 60 394 20 304 20C161 20 98 130 52 210L32 200L92 -10L132 40C132 40 196 -10 296 -10Z" glyph-name="Sacute" horiz-adv-x="600" unicode="&#346;" /><glyph d="M301 820 471 1009 450 1030 301 860 150 1030 130 1009ZM296 -10C436 -10 557 70 557 210C557 521 112 370 112 610C112 720 192 760 282 760C402 760 465 668 514 570L535 580L474 790L434 740C434 740 372 790 282 790C142 790 52 710 52 601C52 290 496 440 496 190C496 60 394 20 304 20C161 20 98 130 52 210L32 200L92 -10L132 40C132 40 196 -10 296 -10Z" glyph-name="Scaron" horiz-adv-x="600" unicode="&#352;" /><glyph d="M130 841 150 820 301 990 450 820 471 841 301 1030ZM296 -10C436 -10 557 70 557 210C557 521 112 370 112 610C112 720 192 760 282 760C402 760 465 668 514 570L535 580L474 790L434 740C434 740 372 790 282 790C142 790 52 710 52 601C52 290 496 440 496 190C496 60 394 20 304 20C161 20 98 130 52 210L32 200L92 -10L132 40C132 40 196 -10 296 -10Z" glyph-name="Scircumflex" horiz-adv-x="600" unicode="&#348;" /><glyph d="M368 690V90C368 20 221 30 221 30V0H580V30C580 30 432 20 432 90V690C432 750 530 750 530 750H550C701 750 750 590 750 590L771 601L720 780H80L30 601L50 590C50 590 100 750 250 750H270C270 750 368 750 368 690Z" glyph-name="T" horiz-adv-x="800" unicode="T" /><glyph d="M401 820 571 1009 550 1030 401 860 250 1030 230 1009ZM368 690V90C368 20 221 30 221 30V0H580V30C580 30 432 20 432 90V690C432 750 530 750 530 750H550C701 750 750 590 750 590L771 601L720 780H80L30 601L50 590C50 590 100 750 250 750H270C270 750 368 750 368 690Z" glyph-name="Tcaron" horiz-adv-x="800" unicode="&#356;" /><glyph d="M629 690V230C629 130 601 30 420 30C270 30 223 110 223 240V690C223 760 370 750 370 750V780H10V750C10 750 158 760 158 690V240C158 90 230 -10 410 -10C601 -10 663 110 663 230V690C663 760 790 750 790 750V780H500V750C500 750 629 760 629 690Z" glyph-name="U" horiz-adv-x="800" unicode="U" /><glyph d="M476 1030 305 841 325 820 495 1011ZM629 690V230C629 130 601 30 420 30C270 30 223 110 223 240V690C223 760 370 750 370 750V780H10V750C10 750 158 760 158 690V240C158 90 230 -10 410 -10C601 -10 663 110 663 230V690C663 760 790 750 790 750V780H500V750C500 750 629 760 629 690Z" glyph-name="Uacute" horiz-adv-x="800" unicode="&#218;" /><glyph d="M280 1030H250C250 948 300 870 400 870C500 870 550 948 550 1030H520C520 965 480 910 400 910C320 910 280 965 280 1030ZM629 690V230C629 130 601 30 420 30C270 30 223 110 223 240V690C223 760 370 750 370 750V780H10V750C10 750 158 760 158 690V240C158 90 230 -10 410 -10C601 -10 663 110 663 230V690C663 760 790 750 790 750V780H500V750C500 750 629 760 629 690Z" glyph-name="Ubreve" horiz-adv-x="800" unicode="&#364;" /><glyph d="M230 841 250 820 401 990 550 820 571 841 401 1030ZM629 690V230C629 130 601 30 420 30C270 30 223 110 223 240V690C223 760 370 750 370 750V780H10V750C10 750 158 760 158 690V240C158 90 230 -10 410 -10C601 -10 663 110 663 230V690C663 760 790 750 790 750V780H500V750C500 750 629 760 629 690Z" glyph-name="Ucircumflex" horiz-adv-x="800" unicode="&#219;" /><glyph d="M240 941C240 901 270 880 300 880C330 880 360 901 360 941C360 980 330 1001 300 1001C271 1001 240 980 240 941ZM440 941C440 901 470 880 500 880C530 880 560 901 560 941C560 980 530 1001 500 1001C471 1001 440 980 440 941ZM629 690V230C629 130 601 30 420 30C270 30 223 110 223 240V690C223 760 370 750 370 750V780H10V750C10 750 158 760 158 690V240C158 90 230 -10 410 -10C601 -10 663 110 663 230V690C663 760 790 750 790 750V780H500V750C500 750 629 760 629 690Z" glyph-name="Udieresis" horiz-adv-x="800" unicode="&#220;" /><glyph d="M305 1011 476 820 495 841 325 1030ZM629 690V230C629 130 601 30 420 30C270 30 223 110 223 240V690C223 760 370 750 370 750V780H10V750C10 750 158 760 158 690V240C158 90 230 -10 410 -10C601 -10 663 110 663 230V690C663 760 790 750 790 750V780H500V750C500 750 629 760 629 690Z" glyph-name="Ugrave" horiz-adv-x="800" unicode="&#217;" /><glyph d="M426 1070 255 881 275 860 445 1051ZM626 1070 455 881 475 860 645 1051ZM629 690V230C629 130 601 30 420 30C270 30 223 110 223 240V690C223 760 370 750 370 750V780H10V750C10 750 158 760 158 690V240C158 90 230 -10 410 -10C601 -10 663 110 663 230V690C663 760 790 750 790 750V780H500V750C500 750 629 760 629 690Z" glyph-name="Uhungarumlaut" horiz-adv-x="800" unicode="&#368;" /><glyph d="M249 870H570V900H249ZM629 690V230C629 130 601 30 420 30C270 30 223 110 223 240V690C223 760 370 750 370 750V780H10V750C10 750 158 760 158 690V240C158 90 230 -10 410 -10C601 -10 663 110 663 230V690C663 760 790 750 790 750V780H500V750C500 750 629 760 629 690Z" glyph-name="Umacron" horiz-adv-x="800" unicode="&#362;" /><glyph d="M521 930C521 991 471 1030 410 1030C350 1030 300 991 300 930C300 868 350 830 410 830C471 830 521 868 521 930ZM480 930C480 885 455 849 410 849C366 849 340 885 340 930C340 973 366 1009 410 1009C455 1009 480 973 480 930ZM629 690V230C629 130 601 30 420 30C270 30 223 110 223 240V690C223 760 370 750 370 750V780H10V750C10 750 158 760 158 690V240C158 90 230 -10 410 -10C601 -10 663 110 663 230V690C663 760 790 750 790 750V780H500V750C500 750 629 760 629 690Z" glyph-name="Uring" horiz-adv-x="800" unicode="&#366;" /><glyph d="M235 941C235 941 245 871 316 871C385 871 425 931 486 931C545 931 556 871 556 871L565 890C565 890 556 960 486 960C425 960 385 901 316 901C255 901 245 960 245 960ZM629 690V230C629 130 601 30 420 30C270 30 223 110 223 240V690C223 760 370 750 370 750V780H10V750C10 750 158 760 158 690V240C158 90 230 -10 410 -10C601 -10 663 110 663 230V690C663 760 790 750 790 750V780H500V750C500 750 629 760 629 690Z" glyph-name="Utilde" horiz-adv-x="800" unicode="&#360;" /><glyph d="M400 -10 650 680C674 746 690 755 780 750V780H500V750C590 755 634 747 610 680L417 128L221 690C194 765 340 750 340 750V780H20V750C20 750 125 760 150 690Z" glyph-name="V" horiz-adv-x="800" unicode="V" /><glyph d="M310 -10 502 591 680 -10 880 680C900 747 920 755 1011 750V780H731V750C820 755 858 749 841 680L694 134L540 690C519 767 670 750 670 750V780H350V750C350 750 451 767 470 701L483 657L327 136L170 690C148 767 300 750 300 750V780H-20V750C-20 750 81 767 100 701Z" glyph-name="W" horiz-adv-x="1000" unicode="W" /><glyph d="M577 1030 406 841 426 820 596 1011ZM310 -10 502 591 680 -10 880 680C900 747 920 755 1011 750V780H731V750C820 755 858 749 841 680L694 134L540 690C519 767 670 750 670 750V780H350V750C350 750 451 767 470 701L483 657L327 136L170 690C148 767 300 750 300 750V780H-20V750C-20 750 81 767 100 701Z" glyph-name="Wacute" horiz-adv-x="1000" unicode="&#7810;" /><glyph d="M330 841 350 820 501 990 650 820 671 841 501 1030ZM310 -10 502 591 680 -10 880 680C900 747 920 755 1011 750V780H731V750C820 755 858 749 841 680L694 134L540 690C519 767 670 750 670 750V780H350V750C350 750 451 767 470 701L483 657L327 136L170 690C148 767 300 750 300 750V780H-20V750C-20 750 81 767 100 701Z" glyph-name="Wcircumflex" horiz-adv-x="1000" unicode="&#372;" /><glyph d="M340 941C340 901 370 880 400 880C430 880 460 901 460 941C460 980 430 1001 400 1001C371 1001 340 980 340 941ZM540 941C540 901 570 880 600 880C630 880 660 901 660 941C660 980 630 1001 600 1001C571 1001 540 980 540 941ZM310 -10 502 591 680 -10 880 680C900 747 920 755 1011 750V780H731V750C820 755 858 749 841 680L694 134L540 690C519 767 670 750 670 750V780H350V750C350 750 451 767 470 701L483 657L327 136L170 690C148 767 300 750 300 750V780H-20V750C-20 750 81 767 100 701Z" glyph-name="Wdieresis" horiz-adv-x="1000" unicode="&#7812;" /><glyph d="M406 1011 577 820 596 841 426 1030ZM310 -10 502 591 680 -10 880 680C900 747 920 755 1011 750V780H731V750C820 755 858 749 841 680L694 134L540 690C519 767 670 750 670 750V780H350V750C350 750 451 767 470 701L483 657L327 136L170 690C148 767 300 750 300 750V780H-20V750C-20 750 81 767 100 701Z" glyph-name="Wgrave" horiz-adv-x="1000" unicode="&#7808;" /><glyph d="M250 690C200 765 361 750 361 750V780H40V750C40 750 129 762 170 701L366 395L170 110C124 42 90 25 20 30V0H300V30C210 25 171 53 210 110L385 365L561 90C610 16 461 30 461 30V0H780V30C780 30 680 20 640 80L423 420L601 680C640 739 661 755 750 750V780H470V750C561 755 600 738 561 680L403 450Z" glyph-name="X" horiz-adv-x="800" unicode="X" /><glyph d="M378 90C378 20 230 30 230 30V0H590V30C590 30 442 20 442 90V300L650 680C684 742 701 755 790 750V780H510V750C601 755 643 742 610 680L431 340L230 690C185 770 340 750 340 750V780H20V750C20 750 114 764 150 701L378 300Z" glyph-name="Y" horiz-adv-x="800" unicode="Y" /><glyph d="M496 1030 325 841 345 820 515 1011ZM378 90C378 20 230 30 230 30V0H590V30C590 30 442 20 442 90V300L650 680C684 742 701 755 790 750V780H510V750C601 755 643 742 610 680L431 340L230 690C185 770 340 750 340 750V780H20V750C20 750 114 764 150 701L378 300Z" glyph-name="Yacute" horiz-adv-x="800" unicode="&#221;" /><glyph d="M230 841 250 820 401 990 550 820 571 841 401 1030ZM378 90C378 20 230 30 230 30V0H590V30C590 30 442 20 442 90V300L650 680C684 742 701 755 790 750V780H510V750C601 755 643 742 610 680L431 340L230 690C185 770 340 750 340 750V780H20V750C20 750 114 764 150 701L378 300Z" glyph-name="Ycircumflex" horiz-adv-x="800" unicode="&#374;" /><glyph d="M240 941C240 901 270 880 300 880C330 880 360 901 360 941C360 980 330 1001 300 1001C271 1001 240 980 240 941ZM440 941C440 901 470 880 500 880C530 880 560 901 560 941C560 980 530 1001 500 1001C471 1001 440 980 440 941ZM378 90C378 20 230 30 230 30V0H590V30C590 30 442 20 442 90V300L650 680C684 742 701 755 790 750V780H510V750C601 755 643 742 610 680L431 340L230 690C185 770 340 750 340 750V780H20V750C20 750 114 764 150 701L378 300Z" glyph-name="Ydieresis" horiz-adv-x="800" unicode="&#376;" /><glyph d="M496 750 10 0H540L590 180L570 190C570 190 520 30 370 30H105L590 780H100L50 601L70 590C70 590 121 750 270 750Z" glyph-name="Z" horiz-adv-x="600" unicode="Z" /><glyph d="M437 1030 266 841 286 820 456 1011ZM496 750 10 0H540L590 180L570 190C570 190 520 30 370 30H105L590 780H100L50 601L70 590C70 590 121 750 270 750Z" glyph-name="Zacute" horiz-adv-x="600" unicode="&#377;" /><glyph d="M341 820 511 1009 490 1030 341 860 190 1030 170 1009ZM496 750 10 0H540L590 180L570 190C570 190 520 30 370 30H105L590 780H100L50 601L70 590C70 590 121 750 270 750Z" glyph-name="Zcaron" horiz-adv-x="600" unicode="&#381;" /><glyph d="M240 940C240 900 271 880 300 880C330 880 360 900 360 940C360 981 330 1000 300 1000C271 1000 240 981 240 940ZM496 750 10 0H540L590 180L570 190C570 190 520 30 370 30H105L590 780H100L50 601L70 590C70 590 121 750 270 750Z" glyph-name="Zdotaccent" horiz-adv-x="600" unicode="&#379;" /><glyph d="M50 391C50 169 229 -10 450 -10C671 -10 850 169 850 391C850 611 671 790 450 790C229 790 50 611 50 391ZM435 570C386 571 341 577 299 588C330 683 383 748 435 758ZM601 588C560 577 513 571 465 570V758C517 748 569 683 601 588ZM627 597C603 662 571 716 535 750C608 733 673 694 722 641C695 623 663 608 627 597ZM274 596C237 607 204 623 178 641C227 694 292 733 365 750C329 716 297 661 274 596ZM265 567C250 517 241 463 240 405H80C83 486 112 560 159 619C188 598 224 580 265 567ZM661 405C658 463 649 517 636 567C676 580 711 598 741 619C788 560 817 486 820 405ZM465 540C516 541 565 547 608 560C621 513 630 462 631 405H465ZM270 405C271 462 279 513 292 560C335 548 384 541 435 540V405ZM636 215C650 264 658 319 661 375H820C816 296 788 223 742 164C713 185 677 202 636 215ZM240 375C241 319 250 265 264 216C223 202 187 185 158 164C112 223 84 296 80 375ZM465 375H631C630 320 621 269 609 224C566 235 516 242 465 244ZM435 244C383 242 334 236 291 224C278 269 271 320 270 375H435ZM435 21C382 32 329 98 298 195C340 206 386 212 435 214ZM465 214C513 212 560 206 601 195C570 98 517 32 465 21ZM272 189C295 121 328 65 365 30C291 48 225 88 176 142C203 161 235 176 272 189ZM628 188C664 176 697 160 724 142C674 87 609 47 535 30C572 65 605 121 628 188Z" glyph-name="_0196" horiz-adv-x="900" /><glyph d="M210 380C310 380 310 280 310 280H330V510H310C310 510 310 410 210 410H170V750C240 750 370 760 400 650L420 661L391 790C391 790 361 780 310 780H40V750H110V90C110 20 10 30 10 30V0H280V30C280 30 170 20 170 90V380Z" glyph-name="_0255" horiz-adv-x="400" /><glyph d="M275 485C365 485 420 440 420 361C420 305 357 292 266 281C140 266 40 245 40 120C40 35 105 -10 205 -10C365 -10 415 125 428 165L420 90C420 30 450 -10 500 -10C550 -10 580 40 601 100L580 110C580 110 570 40 520 40C490 40 480 70 480 100V361C480 480 380 510 280 510C160 510 70 436 70 380C70 350 93 340 110 340C160 340 161 377 168 413C175 450 195 485 275 485ZM420 230C420 180 375 25 230 25C160 25 121 55 121 130C121 215 185 238 275 255C327 265 381 274 420 295Z" glyph-name="a" horiz-adv-x="600" unicode="a" /><glyph d="M420 90C413 31 450 -10 500 -10C550 -10 580 40 601 100L580 110C580 110 570 40 520 40C490 40 480 70 480 100V240L417 202C408 155 363 25 230 25C170 25 121 50 121 121C121 215 198 249 300 260C402 271 510 290 510 390C510 492 390 510 300 510C160 510 70 436 70 380C70 350 93 340 110 340C217 340 97 485 290 485C380 485 440 445 440 380C440 326 393 293 330 283C212 266 40 270 40 120C40 30 113 -10 203 -10C353 -10 410 104 428 165Z" glyph-name="a.alt" horiz-adv-x="600" /><glyph d="M376 790 205 601 225 580 395 771ZM275 485C365 485 420 440 420 361C420 305 357 292 266 281C140 266 40 245 40 120C40 35 105 -10 205 -10C365 -10 415 125 428 165L420 90C420 30 450 -10 500 -10C550 -10 580 40 601 100L580 110C580 110 570 40 520 40C490 40 480 70 480 100V361C480 480 380 510 280 510C160 510 70 436 70 380C70 350 93 340 110 340C160 340 161 377 168 413C175 450 195 485 275 485ZM420 230C420 180 375 25 230 25C160 25 121 55 121 130C121 215 185 238 275 255C327 265 381 274 420 295Z" glyph-name="aacute" horiz-adv-x="600" unicode="&#225;" /><glyph d="M191 790H171C171 708 211 630 301 630C391 630 431 708 431 790H411C411 725 371 660 301 660C231 660 191 725 191 790ZM275 485C365 485 420 440 420 361C420 305 357 292 266 281C140 266 40 245 40 120C40 35 105 -10 205 -10C365 -10 415 125 428 165L420 90C420 30 450 -10 500 -10C550 -10 580 40 601 100L580 110C580 110 570 40 520 40C490 40 480 70 480 100V361C480 480 380 510 280 510C160 510 70 436 70 380C70 350 93 340 110 340C160 340 161 377 168 413C175 450 195 485 275 485ZM420 230C420 180 375 25 230 25C160 25 121 55 121 130C121 215 185 238 275 255C327 265 381 274 420 295Z" glyph-name="abreve" horiz-adv-x="600" unicode="&#259;" /><glyph d="M130 601 150 580 301 750 450 580 471 601 301 790ZM275 485C365 485 420 440 420 361C420 305 357 292 266 281C140 266 40 245 40 120C40 35 105 -10 205 -10C365 -10 415 125 428 165L420 90C420 30 450 -10 500 -10C550 -10 580 40 601 100L580 110C580 110 570 40 520 40C490 40 480 70 480 100V361C480 480 380 510 280 510C160 510 70 436 70 380C70 350 93 340 110 340C160 340 161 377 168 413C175 450 195 485 275 485ZM420 230C420 180 375 25 230 25C160 25 121 55 121 130C121 215 185 238 275 255C327 265 381 274 420 295Z" glyph-name="acircumflex" horiz-adv-x="600" unicode="&#226;" /><glyph d="M601 790 430 601 450 580 620 771Z" glyph-name="acute" horiz-adv-x="834" unicode="&#180;" /><glyph d="M601 1030 430 841 450 820 620 1011Z" glyph-name="acute.case" horiz-adv-x="834" /><glyph d="M140 680C140 640 170 620 200 620C230 620 260 640 260 680C260 720 230 740 200 740C171 740 140 720 140 680ZM340 680C340 640 370 620 400 620C430 620 460 640 460 680C460 720 430 740 400 740C371 740 340 720 340 680ZM275 485C365 485 420 440 420 361C420 305 357 292 266 281C140 266 40 245 40 120C40 35 105 -10 205 -10C365 -10 415 125 428 165L420 90C420 30 450 -10 500 -10C550 -10 580 40 601 100L580 110C580 110 570 40 520 40C490 40 480 70 480 100V361C480 480 380 510 280 510C160 510 70 436 70 380C70 350 93 340 110 340C160 340 161 377 168 413C175 450 195 485 275 485ZM420 230C420 180 375 25 230 25C160 25 121 55 121 130C121 215 185 238 275 255C327 265 381 274 420 295Z" glyph-name="adieresis" horiz-adv-x="600" unicode="&#228;" /><glyph d="M850 280C850 400 801 510 650 510C550 510 489 450 475 380C460 450 400 510 291 510C170 510 80 436 80 380C80 350 103 340 121 340C227 340 110 480 291 480C380 480 430 420 430 361C430 221 50 350 50 121C50 30 130 -10 210 -10C383 -10 431 147 439 175C466 65 552 -10 661 -10C831 -10 860 180 860 180L841 190C841 190 831 40 680 40C580 40 510 121 510 250C510 260 510 270 511 280ZM661 480C771 480 771 350 771 310H513C527 415 575 480 661 480ZM240 20C180 20 130 50 130 130C130 310 320 221 430 291V255C428 181 376 20 240 20Z" glyph-name="ae" horiz-adv-x="900" unicode="&#230;" /><glyph d="M205 771 376 580 395 601 225 790ZM275 485C365 485 420 440 420 361C420 305 357 292 266 281C140 266 40 245 40 120C40 35 105 -10 205 -10C365 -10 415 125 428 165L420 90C420 30 450 -10 500 -10C550 -10 580 40 601 100L580 110C580 110 570 40 520 40C490 40 480 70 480 100V361C480 480 380 510 280 510C160 510 70 436 70 380C70 350 93 340 110 340C160 340 161 377 168 413C175 450 195 485 275 485ZM420 230C420 180 375 25 230 25C160 25 121 55 121 130C121 215 185 238 275 255C327 265 381 274 420 295Z" glyph-name="agrave" horiz-adv-x="600" unicode="&#224;" /><glyph d="M140 660H461V690H140ZM275 485C365 485 420 440 420 361C420 305 357 292 266 281C140 266 40 245 40 120C40 35 105 -10 205 -10C365 -10 415 125 428 165L420 90C420 30 450 -10 500 -10C550 -10 580 40 601 100L580 110C580 110 570 40 520 40C490 40 480 70 480 100V361C480 480 380 510 280 510C160 510 70 436 70 380C70 350 93 340 110 340C160 340 161 377 168 413C175 450 195 485 275 485ZM420 230C420 180 375 25 230 25C160 25 121 55 121 130C121 215 185 238 275 255C327 265 381 274 420 295Z" glyph-name="amacron" horiz-adv-x="600" unicode="&#257;" /><glyph d="M394 305 487 352C528 366 620 326 620 210C620 111 536 40 387 40C217 40 121 110 121 225C121 350 240 391 361 391H380V420H361C270 420 150 461 150 590C150 680 200 760 310 760C470 760 531 640 560 570L579 580L519 790L479 740C479 740 419 790 309 790C160 790 70 701 70 601C70 440 256 413 260 412C270 410 270 402 260 402C255 402 40 391 40 210C40 80 156 -10 357 -10C557 -10 650 90 650 210C650 300 587 357 529 373L693 455L680 480L380 330Z" glyph-name="ampersand" horiz-adv-x="700" unicode="&amp;" /><glyph d="M401 671C401 732 351 771 290 771C230 771 180 732 180 671C180 609 230 571 290 571C351 571 401 609 401 671ZM360 671C360 626 335 590 290 590C246 590 220 626 220 671C220 714 246 750 290 750C335 750 360 714 360 671ZM275 485C365 485 420 440 420 361C420 305 357 292 266 281C140 266 40 245 40 120C40 35 105 -10 205 -10C365 -10 415 125 428 165L420 90C420 30 450 -10 500 -10C550 -10 580 40 601 100L580 110C580 110 570 40 520 40C490 40 480 70 480 100V361C480 480 380 510 280 510C160 510 70 436 70 380C70 350 93 340 110 340C160 340 161 377 168 413C175 450 195 485 275 485ZM420 230C420 180 375 25 230 25C160 25 121 55 121 130C121 215 185 238 275 255C327 265 381 274 420 295Z" glyph-name="aring" horiz-adv-x="600" unicode="&#229;" /><glyph d="M86 617C104 606 129 607 145 623L235 580L145 537C129 552 104 553 86 543C65 532 53 501 68 475C83 449 115 444 136 456C155 466 165 489 160 511L242 570L235 468C213 462 200 440 200 420C200 395 221 370 250 370C280 370 300 395 300 420C300 440 286 462 265 468L258 570L339 511C334 489 346 467 364 458C385 444 417 449 432 475C447 501 435 532 414 543C396 553 371 552 354 537L265 580L354 623C371 607 396 606 414 617C435 630 447 659 432 685C417 711 385 716 364 704C346 693 334 671 339 649L258 590L265 692C286 699 300 719 300 740C300 766 280 790 250 790C221 790 200 766 200 740C200 719 213 699 235 692L242 590L160 649C165 671 155 693 136 704C115 716 83 711 68 685C53 659 65 630 86 617Z" glyph-name="asterisk" horiz-adv-x="500" unicode="*" /><glyph d="M710 -20C710 -20 601 -121 451 -121C246 -121 100 46 100 250C100 454 246 620 450 620C654 620 801 454 801 250C801 140 750 50 670 50C590 50 569 124 580 170L661 510L614 452C602 483 572 510 520 510C370 510 221 350 221 190C221 90 270 20 350 20C428 20 486 81 528 155C527 96 572 20 661 20C760 20 850 121 850 250C850 471 671 650 450 650C229 650 50 471 50 250C50 29 230 -150 451 -150C631 -150 720 -40 720 -40ZM291 210C291 330 361 480 500 480C557 480 585 450 580 410L541 227C512 142 457 80 391 80C320 80 291 140 291 210Z" glyph-name="at" horiz-adv-x="900" unicode="@" /><glyph d="M135 701C135 701 145 631 216 631C285 631 325 690 386 690C445 690 456 631 456 631L465 650C465 650 456 720 386 720C325 720 285 661 216 661C155 661 145 720 145 720ZM275 485C365 485 420 440 420 361C420 305 357 292 266 281C140 266 40 245 40 120C40 35 105 -10 205 -10C365 -10 415 125 428 165L420 90C420 30 450 -10 500 -10C550 -10 580 40 601 100L580 110C580 110 570 40 520 40C490 40 480 70 480 100V361C480 480 380 510 280 510C160 510 70 436 70 380C70 350 93 340 110 340C160 340 161 377 168 413C175 450 195 485 275 485ZM420 230C420 180 375 25 230 25C160 25 121 55 121 130C121 215 185 238 275 255C327 265 381 274 420 295Z" glyph-name="atilde" horiz-adv-x="600" unicode="&#227;" /><glyph d="M30 690C110 730 121 700 121 620V-10L174 79C197 37 240 -10 330 -10C451 -10 561 100 561 250C561 410 465 510 350 510C257 510 206 449 180 392V790L20 720ZM180 300C180 340 210 470 325 470C420 470 480 380 480 250C480 110 420 20 320 20C243 20 190 70 180 150Z" glyph-name="b" horiz-adv-x="600" unicode="b" /><glyph d="M10 771 470 -110 490 -90 30 790Z" glyph-name="backslash" horiz-adv-x="500" unicode="\" /><glyph d="M86 -110H115V780H86Z" glyph-name="bar" horiz-adv-x="200" unicode="|" /><glyph d="M170 221C170 168 130 130 130 49C130 -50 219 -110 330 -110L340 -90C248 -90 180 -30 180 50C180 130 221 168 221 221C221 310 121 340 121 340C121 340 221 370 221 461C221 512 180 550 180 631C180 710 248 771 340 771L330 790C219 790 130 731 130 632C130 550 170 512 170 461C170 380 70 340 70 340C70 340 170 291 170 221Z" glyph-name="braceleft" horiz-adv-x="400" unicode="{" /><glyph d="M230 221C230 291 330 340 330 340C330 340 230 380 230 461C230 512 270 550 270 632C270 731 181 790 70 790L60 771C153 771 221 710 221 631C221 550 180 512 180 461C180 370 280 340 280 340C280 340 180 310 180 221C180 168 221 130 221 50C221 -30 153 -90 60 -90L70 -110C181 -110 270 -50 270 49C270 130 230 168 230 221Z" glyph-name="braceright" horiz-adv-x="400" unicode="}" /><glyph d="M50 -110H180V-80H80V750H180V780H50Z" glyph-name="bracketleft" horiz-adv-x="200" unicode="[" /><glyph d="M150 780H20V750H121V-80H20V-110H150Z" glyph-name="bracketright" horiz-adv-x="200" unicode="]" /><glyph d="M220 790H200C200 708 240 630 330 630C420 630 460 708 460 790H440C440 725 400 660 330 660C260 660 220 725 220 790Z" glyph-name="breve" horiz-adv-x="834" unicode="&#728;" /><glyph d="M230 1030H200C200 948 250 870 350 870C450 870 500 948 500 1030H470C470 965 430 910 350 910C270 910 230 965 230 1030Z" glyph-name="breve.case" horiz-adv-x="834" /><glyph d="M86 780V430H115V780ZM86 240V-110H115V240Z" glyph-name="brokenbar" horiz-adv-x="200" unicode="&#166;" /><glyph d="M60 300C60 221 121 160 200 160C280 160 340 221 340 300C340 380 280 440 200 440C121 440 60 380 60 300Z" glyph-name="bullet" horiz-adv-x="400" unicode="&#8226;" /><glyph d="M260 510C130 510 40 400 40 250C40 100 130 -10 260 -10C430 -10 470 180 470 180L450 190C450 190 430 40 281 40C180 40 121 131 121 250C121 391 175 485 270 485C330 485 345 450 355 410C364 372 352 320 410 320C428 320 450 330 450 361C450 416 400 510 260 510Z" glyph-name="c" horiz-adv-x="500" unicode="c" /><glyph d="M326 790 155 601 175 580 345 771ZM260 510C130 510 40 400 40 250C40 100 130 -10 260 -10C430 -10 470 180 470 180L450 190C450 190 430 40 281 40C180 40 121 131 121 250C121 391 175 485 270 485C330 485 345 450 355 410C364 372 352 320 410 320C428 320 450 330 450 361C450 416 400 510 260 510Z" glyph-name="cacute" horiz-adv-x="500" unicode="&#263;" /><glyph d="M601 580 771 769 750 790 601 620 450 790 430 769Z" glyph-name="caron" horiz-adv-x="834" unicode="&#711;" /><glyph d="M601 820 771 1009 750 1030 601 860 450 1030 430 1009Z" glyph-name="caron.case" horiz-adv-x="834" /><glyph d="M271 580 441 769 420 790 271 620 120 790 100 769ZM260 510C130 510 40 400 40 250C40 100 130 -10 260 -10C430 -10 470 180 470 180L450 190C450 190 430 40 281 40C180 40 121 131 121 250C121 391 175 485 270 485C330 485 345 450 355 410C364 372 352 320 410 320C428 320 450 330 450 361C450 416 400 510 260 510Z" glyph-name="ccaron" horiz-adv-x="500" unicode="&#269;" /><glyph d="M145 -140C145 -140 155 -210 245 -210C296 -210 345 -180 345 -130C345 -70 285 -50 245 -70L302 -6C437 22 470 180 470 180L450 190C450 190 430 40 281 40C180 40 121 131 121 250C121 391 175 485 270 485C330 485 345 450 355 410C364 372 352 320 410 320C428 320 450 330 450 361C450 416 400 510 260 510C130 510 40 400 40 250C40 100 130 -10 260 -10C263 -10 267 -10 270 -10L215 -70L226 -90C265 -80 296 -100 296 -130C296 -160 275 -180 235 -180C175 -180 165 -121 165 -121Z" glyph-name="ccedilla" horiz-adv-x="500" unicode="&#231;" /><glyph d="M100 601 120 580 271 750 420 580 441 601 271 790ZM260 510C130 510 40 400 40 250C40 100 130 -10 260 -10C430 -10 470 180 470 180L450 190C450 190 430 40 281 40C180 40 121 131 121 250C121 391 175 485 270 485C330 485 345 450 355 410C364 372 352 320 410 320C428 320 450 330 450 361C450 416 400 510 260 510Z" glyph-name="ccircumflex" horiz-adv-x="500" unicode="&#265;" /><glyph d="M210 660C210 620 241 600 270 600C300 600 330 620 330 660C330 701 300 720 270 720C241 720 210 701 210 660ZM260 510C130 510 40 400 40 250C40 100 130 -10 260 -10C430 -10 470 180 470 180L450 190C450 190 430 40 281 40C180 40 121 131 121 250C121 391 175 485 270 485C330 485 345 450 355 410C364 372 352 320 410 320C428 320 450 330 450 361C450 416 400 510 260 510Z" glyph-name="cdotaccent" horiz-adv-x="500" unicode="&#267;" /><glyph d="M140 -140C140 -140 150 -210 240 -210C291 -210 340 -180 340 -130C340 -70 280 -50 240 -70L320 20L310 40L210 -70L221 -90C260 -80 291 -100 291 -130C291 -160 270 -180 230 -180C170 -180 160 -121 160 -121Z" glyph-name="cedilla" horiz-adv-x="834" unicode="&#184;" /><glyph d="M270 590C140 590 50 480 50 330C50 249 79 180 127 133L10 -90L30 -110L147 115C184 86 230 70 280 70C450 70 480 260 480 260L461 270C461 270 450 121 300 121C251 121 209 140 179 175L359 520C377 472 348 400 420 400C437 400 461 410 461 440C461 478 438 532 382 564L490 771L470 790L358 575C333 584 304 590 270 590ZM130 330C130 470 180 561 280 561C310 561 329 555 342 544L161 200C141 234 130 278 130 330Z" glyph-name="cent" horiz-adv-x="500" unicode="&#162;" /><glyph d="M430 601 450 580 601 750 750 580 771 601 601 790Z" glyph-name="circumflex" horiz-adv-x="834" unicode="&#710;" /><glyph d="M430 841 450 820 601 990 750 820 771 841 601 1030Z" glyph-name="circumflex.case" horiz-adv-x="834" /><glyph d="M90 450C90 410 121 391 150 391C180 391 210 410 210 450C210 490 180 510 150 510C121 510 90 490 90 450ZM90 50C90 10 121 -10 150 -10C180 -10 210 10 210 50C210 90 180 110 150 110C121 110 90 90 90 50Z" glyph-name="colon" horiz-adv-x="300" unicode=":" /><glyph d="M90 50C90 14 114 -4 135 -4C161 -4 170 10 170 10L75 -150L95 -160L200 15C206 24 210 35 210 50C210 90 180 110 150 110C121 110 90 90 90 50Z" glyph-name="comma" horiz-adv-x="300" unicode="," /><glyph d="M50 391C50 169 229 -10 450 -10C671 -10 850 169 850 391C850 611 671 790 450 790C229 790 50 611 50 391ZM80 391C80 595 246 760 450 760C654 760 820 595 820 391C820 187 654 20 450 20C246 20 80 187 80 391ZM447 652C309 652 210 538 210 392C210 243 309 130 454 130C644 130 676 337 676 337L664 344C664 344 628 180 461 180C361 180 273 257 273 392C273 526 345 622 461 622C576 622 625 532 644 486L657 493L608 637L583 605C583 605 544 652 447 652Z" glyph-name="copyright" horiz-adv-x="900" unicode="&#169;" /><glyph d="M580 30V60C580 60 480 20 480 90V790L320 720L330 690C410 730 420 700 420 620V432C395 471 353 510 270 510C149 510 39 400 39 250C39 90 139 -10 250 -10C367 -10 407 87 430 150L410 -10ZM420 220C420 190 400 30 270 30C180 30 120 120 120 250C120 390 180 480 280 480C357 480 410 430 420 350Z" glyph-name="d" horiz-adv-x="600" unicode="d" /><glyph d="M91 470 190 475 185 370V-10L190 -110H210L215 -10V370L210 475L310 470H380V500H310L210 496L215 601V680L210 780H190L185 680V601L190 496L90 500H20V470Z" glyph-name="dagger" horiz-adv-x="400" unicode="&#8224;" /><glyph d="M185 300 190 195 91 200H20V170H90L190 175L185 70V-10L190 -110H210L215 -10V70L210 175L310 170H380V200H310L210 195L215 300V370L210 475L310 470H380V500H310L210 496L215 601V680L210 780H190L185 680V601L190 496L90 500H20V470H91L190 475L185 370Z" glyph-name="daggerdbl" horiz-adv-x="400" unicode="&#8225;" /><glyph d="M580 30V60C580 60 480 20 480 90V790L320 720L330 690C410 730 420 700 420 620V432C395 471 353 510 270 510C149 510 39 400 39 250C39 90 139 -10 250 -10C367 -10 407 87 430 150L410 -10ZM580 731C580 695 604 676 625 676C651 676 660 690 660 690L565 531L585 520L690 696C696 704 700 715 700 731C700 771 670 790 640 790C611 790 580 771 580 731ZM420 220C420 190 400 30 270 30C180 30 120 120 120 250C120 390 180 480 280 480C357 480 410 430 420 350Z" glyph-name="dcaron" horiz-adv-x="700" unicode="&#271;" /><glyph d="M65 655C65 580 125 520 200 520C275 520 335 580 335 655C335 731 275 790 200 790C125 790 65 731 65 655ZM95 655C95 713 142 760 200 760C258 760 305 713 305 655C305 598 258 550 200 550C142 550 95 598 95 655Z" glyph-name="degree" horiz-adv-x="400" unicode="&#176;" /><glyph d="M80 680C80 640 110 620 140 620C170 620 200 640 200 680C200 720 170 740 140 740C111 740 80 720 80 680ZM280 680C280 640 310 620 340 620C370 620 400 640 400 680C400 720 370 740 340 740C311 740 280 720 280 680Z" glyph-name="dieresis" horiz-adv-x="834" unicode="&#168;" /><glyph d="M80 941C80 901 110 880 140 880C170 880 200 901 200 941C200 980 170 1001 140 1001C111 1001 80 980 80 941ZM280 941C280 901 310 880 340 880C370 880 400 901 400 941C400 980 370 1001 340 1001C311 1001 280 980 280 941Z" glyph-name="dieresis.case" horiz-adv-x="834" /><glyph d="M190 480C190 440 222 420 250 420C280 420 310 440 310 480C310 520 280 540 250 540C221 540 190 520 190 480ZM40 300H461V330H40ZM190 150C190 110 222 90 250 90C280 90 310 110 310 150C310 190 280 210 250 210C221 210 190 190 190 150Z" glyph-name="divide" horiz-adv-x="500" unicode="&#247;" /><glyph d="M285 -110H315V-10C449 -4 561 75 561 210C561 380 434 418 315 450V757C423 742 483 652 510 570L531 580L470 790L430 740C430 740 385 777 315 787V890H285V790C283 790 282 790 280 790C140 790 50 710 50 601C50 446 169 411 285 377V20C146 27 89 124 60 210L40 200L100 -10L140 40C140 40 194 -5 285 -10ZM110 610C110 720 190 760 280 760H285V458C191 483 110 512 110 610ZM500 190C500 67 403 25 315 20V369C413 339 500 305 500 190Z" glyph-name="dollar" horiz-adv-x="600" unicode="$" /><glyph d="M90 660C90 620 121 600 150 600C180 600 210 620 210 660C210 701 180 720 150 720C121 720 90 701 90 660Z" glyph-name="dotaccent" horiz-adv-x="300" unicode="&#729;" /><glyph d="M90 940C90 900 121 880 150 880C180 880 210 900 210 940C210 981 180 1000 150 1000C121 1000 90 981 90 940Z" glyph-name="dotaccent.case" horiz-adv-x="300" /><glyph d="M20 440 30 410C113 448 121 422 121 360V90C121 20 20 30 20 30V0H280V30C280 30 180 20 180 90V510Z" glyph-name="dotlessi" horiz-adv-x="300" unicode="&#305;" /><glyph d="M461 280C461 400 410 510 260 510C130 510 40 400 40 250C40 100 130 -10 260 -10C430 -10 470 180 470 180L450 190C450 190 430 40 281 40C180 40 121 131 121 250C121 260 121 270 122 280ZM270 480C380 480 380 350 380 310H124C137 416 185 480 270 480Z" glyph-name="e" horiz-adv-x="500" unicode="e" /><glyph d="M326 790 155 601 175 580 345 771ZM461 280C461 400 410 510 260 510C130 510 40 400 40 250C40 100 130 -10 260 -10C430 -10 470 180 470 180L450 190C450 190 430 40 281 40C180 40 121 131 121 250C121 260 121 270 122 280ZM270 480C380 480 380 350 380 310H124C137 416 185 480 270 480Z" glyph-name="eacute" horiz-adv-x="500" unicode="&#233;" /><glyph d="M140 790H120C120 708 160 630 250 630C340 630 380 708 380 790H360C360 725 320 660 250 660C180 660 140 725 140 790ZM461 280C461 400 410 510 260 510C130 510 40 400 40 250C40 100 130 -10 260 -10C430 -10 470 180 470 180L450 190C450 190 430 40 281 40C180 40 121 131 121 250C121 260 121 270 122 280ZM270 480C380 480 380 350 380 310H124C137 416 185 480 270 480Z" glyph-name="ebreve" horiz-adv-x="500" unicode="&#277;" /><glyph d="M251 580 421 769 400 790 251 620 100 790 80 769ZM461 280C461 400 410 510 260 510C130 510 40 400 40 250C40 100 130 -10 260 -10C430 -10 470 180 470 180L450 190C450 190 430 40 281 40C180 40 121 131 121 250C121 260 121 270 122 280ZM270 480C380 480 380 350 380 310H124C137 416 185 480 270 480Z" glyph-name="ecaron" horiz-adv-x="500" unicode="&#283;" /><glyph d="M80 601 100 580 251 750 400 580 421 601 251 790ZM461 280C461 400 410 510 260 510C130 510 40 400 40 250C40 100 130 -10 260 -10C430 -10 470 180 470 180L450 190C450 190 430 40 281 40C180 40 121 131 121 250C121 260 121 270 122 280ZM270 480C380 480 380 350 380 310H124C137 416 185 480 270 480Z" glyph-name="ecircumflex" horiz-adv-x="500" unicode="&#234;" /><glyph d="M90 680C90 640 120 620 150 620C180 620 210 640 210 680C210 720 180 740 150 740C121 740 90 720 90 680ZM290 680C290 640 320 620 350 620C380 620 410 640 410 680C410 720 380 740 350 740C321 740 290 720 290 680ZM461 280C461 400 410 510 260 510C130 510 40 400 40 250C40 100 130 -10 260 -10C430 -10 470 180 470 180L450 190C450 190 430 40 281 40C180 40 121 131 121 250C121 260 121 270 122 280ZM270 480C380 480 380 350 380 310H124C137 416 185 480 270 480Z" glyph-name="edieresis" horiz-adv-x="500" unicode="&#235;" /><glyph d="M200 660C200 620 231 600 260 600C290 600 320 620 320 660C320 701 290 720 260 720C231 720 200 701 200 660ZM461 280C461 400 410 510 260 510C130 510 40 400 40 250C40 100 130 -10 260 -10C430 -10 470 180 470 180L450 190C450 190 430 40 281 40C180 40 121 131 121 250C121 260 121 270 122 280ZM270 480C380 480 380 350 380 310H124C137 416 185 480 270 480Z" glyph-name="edotaccent" horiz-adv-x="500" unicode="&#279;" /><glyph d="M155 771 326 580 345 601 175 790ZM461 280C461 400 410 510 260 510C130 510 40 400 40 250C40 100 130 -10 260 -10C430 -10 470 180 470 180L450 190C450 190 430 40 281 40C180 40 121 131 121 250C121 260 121 270 122 280ZM270 480C380 480 380 350 380 310H124C137 416 185 480 270 480Z" glyph-name="egrave" horiz-adv-x="500" unicode="&#232;" /><glyph d="M561 205C561 333 473 383 375 421C463 448 520 521 520 601C520 731 420 790 291 790C160 790 60 720 60 601C60 493 130 444 214 409C116 380 40 301 40 205C40 55 160 -10 300 -10C440 -10 561 70 561 205ZM121 620C121 720 200 760 291 760C391 760 470 710 470 601C470 507 422 450 354 429C240 471 121 501 121 620ZM90 205C90 307 158 376 236 400C358 353 500 326 500 190C500 60 391 20 300 20C190 20 90 75 90 205Z" glyph-name="eight" horiz-adv-x="600" unicode="8" /><glyph d="M91 50C91 10 122 -10 151 -10C181 -10 211 10 211 50C211 90 181 110 151 110C122 110 91 90 91 50ZM392 50C392 10 421 -10 451 -10C481 -10 511 10 511 50C511 90 481 110 451 110C422 110 392 90 392 50ZM691 50C691 10 721 -10 751 -10C781 -10 811 10 811 50C811 90 781 110 751 110C722 110 691 90 691 50Z" glyph-name="ellipsis" horiz-adv-x="900" unicode="&#8230;" /><glyph d="M780 300V330H20V300Z" glyph-name="emdash" horiz-adv-x="800" unicode="&#8212;" /><glyph d="M20 300H580V330H20Z" glyph-name="endash" horiz-adv-x="600" unicode="&#8211;" /><glyph d="M40 391H461V420H40ZM40 210H461V240H40Z" glyph-name="equal" horiz-adv-x="500" unicode="=" /><glyph d="M130 780H70C70 661 86 510 86 221H115C115 510 130 661 130 780ZM40 50C40 10 70 -10 100 -10C130 -10 160 10 160 50C160 90 130 110 100 110C71 110 40 90 40 50Z" glyph-name="exclam" horiz-adv-x="200" unicode="!" /><glyph d="M40 620C40 580 71 561 100 561C130 561 160 580 160 620C160 661 130 680 100 680C70 680 40 661 40 620ZM70 -110H130C130 10 115 160 115 450H86C86 160 70 10 70 -110Z" glyph-name="exclamdown" horiz-adv-x="200" unicode="&#161;" /><glyph d="M20 470H121V90C121 20 20 30 20 30V0H291V30C291 30 180 20 180 90V470H300V500H180V576C180 701 200 740 240 740C291 740 291 690 340 690C365 690 380 704 380 740C380 777 350 790 310 790C189 790 121 681 121 561V500H20Z" glyph-name="f" horiz-adv-x="300" unicode="f" /><glyph d="M190 380C291 380 291 280 291 280H310V510H291C291 510 291 410 190 410H170V750H380V90C380 20 300 30 300 30V0H550V30C550 30 440 20 440 90V380H480C580 380 580 280 580 280H601V510H580C580 510 580 410 480 410H440V750C561 750 670 740 710 631L731 640L680 790C680 790 651 780 601 780H10V750H110V90C110 20 10 30 10 30V0H260V30C260 30 170 20 170 90V380Z" glyph-name="ff" horiz-adv-x="600" unicode="&#64256;" /><glyph d="M20 470H121V90C121 20 20 30 20 30V0H261V30C261 30 180 20 180 90V470H371V90C371 20 290 30 290 30V0H541V30C541 30 430 20 430 90V470H570V500H430V576C430 701 450 740 490 740C541 740 541 690 590 690C615 690 630 704 630 740C630 777 600 790 560 790C510 790 469 768 439 736C440 740 440 745 440 750C440 770 424 790 380 790C230 790 121 701 121 561V500H20ZM180 576C180 720 250 750 290 750C350 750 360 700 400 700C405 700 409 701 413 702C385 659 371 607 371 561V500H180Z" glyph-name="ff.alt" horiz-adv-x="600" /><glyph d="M620 380C680 380 720 380 720 340V90C720 20 620 30 620 30V0H880V30C880 30 780 20 780 90V510C780 510 731 410 620 410H470V750C590 750 701 740 740 631L760 640L710 790C710 790 681 780 631 780H20V750H121V90C121 20 20 30 20 30V0H270V30C270 30 180 20 180 90V380H410V90C410 20 330 30 330 30V0H580V30C580 30 470 20 470 90V380ZM180 750H410V410H180Z" glyph-name="ffi" horiz-adv-x="900" unicode="&#64259;" /><glyph d="M20 470H121V90C121 20 20 30 20 30V0H250V30C250 30 180 20 180 90V470H361V90C361 20 280 30 280 30V0H500V30C500 30 420 20 420 90V470H544C610 470 621 470 621 340V90C621 20 530 30 530 30V0H780V30C780 30 680 20 680 90V510C680 510 635 500 534 500H420V576C420 720 490 750 530 750C590 750 600 700 640 700C670 700 680 726 680 750C680 770 664 790 620 790C547 790 483 769 438 731C439 737 440 744 440 750C440 770 424 790 380 790C230 790 121 701 121 561V500H20ZM361 561V500H180V576C180 720 250 750 290 750C350 750 360 700 400 700C403 700 405 700 408 701C378 664 361 616 361 561Z" glyph-name="ffi.alt" horiz-adv-x="800" /><glyph d="M200 380C300 380 300 280 300 280H320V510H300C300 510 300 410 200 410H180V750H410V90C410 20 330 30 330 30V0H580V30C580 30 470 20 470 90V380H490C590 380 590 280 590 280H610V510H590C590 510 590 410 490 410H470V750C680 750 720 740 720 620V90C720 20 620 30 620 30V0H880V30C880 30 780 20 780 90V790C780 790 760 780 701 780H20V750H121V90C121 20 20 30 20 30V0H270V30C270 30 180 20 180 90V380Z" glyph-name="ffl" horiz-adv-x="900" unicode="&#64260;" /><glyph d="M10 470H111V90C111 20 10 30 10 30V0H251V30C251 30 170 20 170 90V470H361V90C361 20 280 30 280 30V0H511V30C511 30 420 20 420 90V470H641V90C641 20 540 30 540 30V0H800V30C800 30 700 20 700 90V740C700 760 680 790 620 790C549 790 484 767 436 727C439 734 440 742 440 750C440 770 424 790 380 790C220 790 111 701 111 561V500H10ZM361 561V500H170V576C170 720 230 750 280 750C340 750 360 700 400 700C404 700 408 700 411 701C380 664 361 617 361 561ZM641 620V500H420V576C420 720 490 750 530 750C590 750 640 700 640 700Z" glyph-name="ffl.alt" horiz-adv-x="800" /><glyph d="M320 380C380 380 420 380 420 340V90C420 20 320 30 320 30V0H580V30C580 30 480 20 480 90V510C480 510 430 410 320 410H170V750C291 750 400 740 440 631L461 640L410 790C410 790 381 780 330 780H20V750H110V90C110 20 30 30 30 30V0H280V30C280 30 170 20 170 90V380Z" glyph-name="fi" horiz-adv-x="600" unicode="&#64257;" /><glyph d="M20 470H121V90C121 20 20 30 20 30V0H271V30C271 30 180 20 180 90V470H324C390 470 401 470 401 340V90C401 20 300 30 300 30V0H560V30C560 30 460 20 460 90V510C460 510 415 500 314 500H180V576C180 720 250 750 290 750C350 750 360 700 400 700C430 700 440 726 440 750C440 770 424 790 380 790C230 790 121 701 121 561V500H20Z" glyph-name="fi.alt" horiz-adv-x="600" /><glyph d="M291 470C410 470 480 370 480 240C480 130 420 40 280 40C80 40 60 230 60 230L40 221C40 130 110 -10 291 -10C470 -10 561 110 561 240C561 420 410 500 291 500C160 500 110 430 110 430V690C110 719 150 731 180 731H300C450 731 510 620 510 620L531 631L470 790L420 780H80V370H110C110 370 140 470 291 470Z" glyph-name="five" horiz-adv-x="600" unicode="5" /><glyph d="M190 380C291 380 291 280 291 280H310V510H291C291 510 291 410 190 410H170V750C380 750 420 740 420 620V90C420 20 320 30 320 30V0H580V30C580 30 480 20 480 90V790C480 790 461 780 400 780H20V750H110V90C110 20 30 30 30 30V0H280V30C280 30 170 20 170 90V380Z" glyph-name="fl" horiz-adv-x="600" unicode="&#64258;" /><glyph d="M30 470H131V90C131 20 30 30 30 30V0H281V30C281 30 190 20 190 90V470H411V90C411 20 310 30 310 30V0H570V30C570 30 470 20 470 90V740C470 760 450 790 390 790C250 790 131 701 131 561V500H30ZM411 620V500H190V576C190 720 260 750 300 750C360 750 410 700 410 700Z" glyph-name="fl.alt" horiz-adv-x="600" /><glyph d="M30 210H330V90C330 20 180 30 180 30V0H540V30C540 30 391 20 391 90V210H601V260C601 260 522 257 391 254V790L30 250ZM310 620C318 633 330 640 330 620V253C253 251 163 250 63 250Z" glyph-name="four" horiz-adv-x="600" unicode="4" /><glyph d="M470 790 10 10 30 -10 490 771Z" glyph-name="fraction" horiz-adv-x="500" unicode="&#8260;" /><glyph d="M90 330C90 246 144 191 207 166C124 157 60 131 60 70C60 29 94 1 150 -7C101 -18 40 -44 40 -110C40 -220 180 -230 278 -230C430 -230 561 -180 561 -70C561 0 520 50 400 50H190C150 50 121 60 121 90C121 140 210 150 290 150C380 150 490 210 490 330C490 393 459 440 417 470H601V500H355C334 507 311 510 290 510C200 510 90 450 90 330ZM160 320C160 430 228 480 300 480C318 480 335 477 350 470C393 451 420 407 420 340C420 231 352 180 281 180C211 180 160 230 160 320ZM380 -10C461 -10 510 -40 510 -90C510 -165 420 -200 291 -200C179 -200 110 -181 110 -100C110 -10 210 -10 210 -10Z" glyph-name="g" horiz-adv-x="600" unicode="g" /><glyph d="M191 790H171C171 708 211 630 301 630C391 630 431 708 431 790H411C411 725 371 660 301 660C231 660 191 725 191 790ZM90 330C90 246 144 191 207 166C124 157 60 131 60 70C60 29 94 1 150 -7C101 -18 40 -44 40 -110C40 -220 180 -230 278 -230C430 -230 561 -180 561 -70C561 0 520 50 400 50H190C150 50 121 60 121 90C121 140 210 150 290 150C380 150 490 210 490 330C490 393 459 440 417 470H601V500H355C334 507 311 510 290 510C200 510 90 450 90 330ZM160 320C160 430 228 480 300 480C318 480 335 477 350 470C393 451 420 407 420 340C420 231 352 180 281 180C211 180 160 230 160 320ZM380 -10C461 -10 510 -40 510 -90C510 -165 420 -200 291 -200C179 -200 110 -181 110 -100C110 -10 210 -10 210 -10Z" glyph-name="gbreve" horiz-adv-x="600" unicode="&#287;" /><glyph d="M130 601 150 580 301 750 450 580 471 601 301 790ZM90 330C90 246 144 191 207 166C124 157 60 131 60 70C60 29 94 1 150 -7C101 -18 40 -44 40 -110C40 -220 180 -230 278 -230C430 -230 561 -180 561 -70C561 0 520 50 400 50H190C150 50 121 60 121 90C121 140 210 150 290 150C380 150 490 210 490 330C490 393 459 440 417 470H601V500H355C334 507 311 510 290 510C200 510 90 450 90 330ZM160 320C160 430 228 480 300 480C318 480 335 477 350 470C393 451 420 407 420 340C420 231 352 180 281 180C211 180 160 230 160 320ZM380 -10C461 -10 510 -40 510 -90C510 -165 420 -200 291 -200C179 -200 110 -181 110 -100C110 -10 210 -10 210 -10Z" glyph-name="gcircumflex" horiz-adv-x="600" unicode="&#285;" /><glyph d="M220 660C220 620 251 600 280 600C310 600 340 620 340 660C340 701 310 720 280 720C251 720 220 701 220 660ZM90 330C90 246 144 191 207 166C124 157 60 131 60 70C60 29 94 1 150 -7C101 -18 40 -44 40 -110C40 -220 180 -230 278 -230C430 -230 561 -180 561 -70C561 0 520 50 400 50H190C150 50 121 60 121 90C121 140 210 150 290 150C380 150 490 210 490 330C490 393 459 440 417 470H601V500H355C334 507 311 510 290 510C200 510 90 450 90 330ZM160 320C160 430 228 480 300 480C318 480 335 477 350 470C393 451 420 407 420 340C420 231 352 180 281 180C211 180 160 230 160 320ZM380 -10C461 -10 510 -40 510 -90C510 -165 420 -200 291 -200C179 -200 110 -181 110 -100C110 -10 210 -10 210 -10Z" glyph-name="gdotaccent" horiz-adv-x="600" unicode="&#289;" /><glyph d="M20 470H121V90C121 20 20 30 20 30V0H180V576C180 701 221 760 330 760C420 760 480 720 480 601V498C480 498 450 510 410 510C330 510 260 461 260 380C260 190 601 270 601 121C601 70 570 30 490 30C350 30 260 200 260 200L240 190L310 -10L350 50C350 50 410 -10 490 -10C601 -10 661 60 661 130C661 340 320 250 320 400C320 440 350 480 420 480C490 480 540 440 540 440V570C540 690 480 790 330 790C179 790 121 690 121 561V500H20Z" glyph-name="germandbls" horiz-adv-x="700" unicode="&#223;" /><glyph d="M430 771 601 580 620 601 450 790Z" glyph-name="grave" horiz-adv-x="834" unicode="`" /><glyph d="M430 1011 601 820 620 841 450 1030Z" glyph-name="grave.case" horiz-adv-x="834" /><glyph d="M90 55 310 295V335L90 575L70 555L291 315L70 75Z" glyph-name="greater" horiz-adv-x="400" unicode="&gt;" /><glyph d="M280 10 60 250 280 490 260 510 40 270V230L260 -10ZM461 10 240 250 461 490 440 510 221 270V230L440 -10Z" glyph-name="guillemotleft" horiz-adv-x="500" unicode="&#171;" /><glyph d="M60 -10 280 230V270L60 510L40 490L260 250L40 10ZM240 -10 461 230V270L240 510L221 490L440 250L221 10Z" glyph-name="guillemotright" horiz-adv-x="500" unicode="&#187;" /><glyph d="M490 400C490 461 450 510 370 510C303 510 246 466 180 366V790L20 720L30 690C110 730 121 700 121 620V90C121 20 20 30 20 30V0H280V30C280 30 180 20 180 90V280C180 361 250 450 330 450C380 450 430 421 430 340V90C430 20 330 30 330 30V0H590V30C590 30 490 20 490 90Z" glyph-name="h" horiz-adv-x="600" unicode="h" /><glyph d="M120 841 140 820 291 990 440 820 461 841 291 1030ZM490 400C490 461 450 510 370 510C303 510 246 466 180 366V790L20 720L30 690C110 730 121 700 121 620V90C121 20 20 30 20 30V0H280V30C280 30 180 20 180 90V280C180 361 250 450 330 450C380 450 430 421 430 340V90C430 20 330 30 330 30V0H590V30C590 30 490 20 490 90Z" glyph-name="hcircumflex" horiz-adv-x="600" unicode="&#293;" /><glyph d="M160 510C83 510 40 460 40 380C40 227 200 100 300 -10C400 100 560 227 560 380C560 460 517 510 440 510C336 510 310 410 300 341C290 410 264 510 160 510Z" glyph-name="heart" horiz-adv-x="600" unicode="&#9829;" /><glyph d="M221 790 50 601 70 580 240 771ZM421 790 250 601 270 580 440 771Z" glyph-name="hungarumlaut" horiz-adv-x="500" unicode="&#733;" /><glyph d="M221 1030 50 841 70 820 240 1011ZM421 1030 250 841 270 820 440 1011Z" glyph-name="hungarumlaut.case" horiz-adv-x="500" /><glyph d="M40 300H361V330H40Z" glyph-name="hyphen" horiz-adv-x="400" unicode="-" /><glyph d="M70 680C70 640 100 620 130 620C160 620 190 640 190 680C190 720 160 740 130 740C101 740 70 720 70 680ZM20 440 30 410C120 450 121 421 121 340V90C121 20 20 30 20 30V0H280V30C280 30 180 20 180 90V510Z" glyph-name="i" horiz-adv-x="300" unicode="i" /><glyph d="M226 790 55 601 75 580 245 771ZM20 440 30 410C113 448 121 422 121 360V90C121 20 20 30 20 30V0H280V30C280 30 180 20 180 90V510Z" glyph-name="iacute" horiz-adv-x="300" unicode="&#237;" /><glyph d="M-20 601 0 580 151 750 300 580 321 601 151 790ZM20 440 30 410C113 448 121 422 121 360V90C121 20 20 30 20 30V0H280V30C280 30 180 20 180 90V510Z" glyph-name="icircumflex" horiz-adv-x="300" unicode="&#238;" /><glyph d="M-10 680C-10 640 20 620 50 620C80 620 110 640 110 680C110 720 80 740 50 740C21 740 -10 720 -10 680ZM190 680C190 640 220 620 250 620C280 620 310 640 310 680C310 720 280 740 250 740C221 740 190 720 190 680ZM20 440 30 410C113 448 121 422 121 360V90C121 20 20 30 20 30V0H280V30C280 30 180 20 180 90V510Z" glyph-name="idieresis" horiz-adv-x="300" unicode="&#239;" /><glyph d="M55 771 226 580 245 601 75 790ZM20 440 30 410C113 448 121 422 121 360V90C121 20 20 30 20 30V0H280V30C280 30 180 20 180 90V510Z" glyph-name="igrave" horiz-adv-x="300" unicode="&#236;" /><glyph d="M290 680C290 640 320 620 350 620C380 620 410 640 410 680C410 720 380 740 350 740C321 740 290 720 290 680ZM70 680C70 640 100 620 130 620C160 620 190 640 190 680C190 720 160 740 130 740C101 740 70 720 70 680ZM20 440 30 410C113 448 121 422 121 360V90C121 20 20 30 20 30V0H340V-16C340 -140 320 -180 280 -180C230 -180 230 -130 180 -130C155 -130 140 -144 140 -180C140 -217 170 -230 210 -230C331 -230 400 -100 400 0V510L180 414V510ZM180 90V380C300 440 340 421 340 350V30C238 29 180 22 180 90Z" glyph-name="ij" horiz-adv-x="500" unicode="&#307;" /><glyph d="M-10 660H311V690H-10ZM20 440 30 410C113 448 121 422 121 360V90C121 20 20 30 20 30V0H280V30C280 30 180 20 180 90V510Z" glyph-name="imacron" horiz-adv-x="300" unicode="&#299;" /><glyph d="M-15 701C-15 701 -5 631 66 631C135 631 175 690 236 690C295 690 306 631 306 631L315 650C315 650 306 720 236 720C175 720 135 661 66 661C5 661 -5 720 -5 720ZM20 440 30 410C113 448 121 422 121 360V90C121 20 20 30 20 30V0H280V30C280 30 180 20 180 90V510Z" glyph-name="itilde" horiz-adv-x="300" unicode="&#297;" /><glyph d="M80 680C80 640 110 620 140 620C170 620 200 640 200 680C200 720 170 740 140 740C111 740 80 720 80 680ZM130 340V-16C130 -140 110 -180 70 -180C20 -180 20 -130 -30 -130C-55 -130 -70 -144 -70 -180C-70 -217 -40 -230 0 -230C121 -230 190 -100 190 0V510L30 440L40 410C120 440 130 421 130 340Z" glyph-name="j" horiz-adv-x="300" unicode="j" /><glyph d="M-20 601 0 580 151 750 300 580 321 601 151 790ZM130 340V-16C130 -140 110 -180 70 -180C20 -180 20 -130 -30 -130C-55 -130 -70 -144 -70 -180C-70 -217 -40 -230 0 -230C121 -230 190 -100 190 0V510L30 440L40 410C120 440 130 421 130 340Z" glyph-name="jcircumflex" horiz-adv-x="300" unicode="&#309;" /><glyph d="M461 80 305 293 410 400C461 450 490 470 550 470V500H280V470C361 470 420 450 370 400L230 260C210 240 190 220 180 208V790L20 720L30 690C110 720 121 700 121 620V90C121 20 20 30 20 30V0H280V30C280 30 180 20 180 90V167L259 248L380 90C433 19 320 30 320 30V0H580V30C580 30 504 20 461 80Z" glyph-name="k" horiz-adv-x="600" unicode="k" /><glyph d="M20 720 30 690C110 730 121 700 121 620V90C121 20 20 30 20 30V0H280V30C280 30 180 20 180 90V790Z" glyph-name="l" horiz-adv-x="300" unicode="l" /><glyph d="M226 1030 55 841 75 820 245 1011ZM20 720 30 690C110 730 121 700 121 620V90C121 20 20 30 20 30V0H280V30C280 30 180 20 180 90V790Z" glyph-name="lacute" horiz-adv-x="300" unicode="&#314;" /><glyph d="M20 720 30 690C110 730 121 700 121 620V90C121 20 20 30 20 30V0H280V30C280 30 180 20 180 90V790ZM280 731C280 695 304 676 325 676C351 676 360 690 360 690L265 531L285 520L390 696C396 704 400 715 400 731C400 771 370 790 340 790C311 790 280 771 280 731Z" glyph-name="lcaron" horiz-adv-x="400" unicode="&#318;" /><glyph d="M20 720 30 690C110 730 121 700 121 620V90C121 20 20 30 20 30V0H280V30C280 30 180 20 180 90V790ZM270 320C270 280 301 260 330 260C360 260 390 280 390 320C390 361 360 380 330 380C301 380 270 361 270 320Z" glyph-name="ldot" horiz-adv-x="400" unicode="&#320;" /><glyph d="M330 75 110 315 330 555 310 575 90 335V295L310 55Z" glyph-name="less" horiz-adv-x="400" unicode="&lt;" /><glyph d="M20 410C100 440 110 421 110 340V90C110 20 10 30 10 30V0H270V30C270 30 170 20 170 90V280C170 361 240 450 320 450C370 450 420 421 420 340V90C420 20 320 30 320 30V0H580V30C580 30 480 20 480 90V280C480 361 550 450 631 450C680 450 731 421 731 340V90C731 20 631 30 631 30V0H890V30C890 30 790 20 790 90V400C790 461 750 510 670 510C604 510 546 466 480 366V400C480 461 440 510 361 510C291 510 230 461 160 350L200 510L10 440Z" glyph-name="m" horiz-adv-x="900" unicode="m" /><glyph d="M50 870H371V900H50Z" glyph-name="macron.case" horiz-adv-x="846" /><glyph d="M40 300H461V330H40Z" glyph-name="minus" horiz-adv-x="500" unicode="&#8722;" /><glyph d="M92 136 250 294 408 136 430 157 272 315 430 473 408 495 250 337 92 495 71 473 229 315 71 157Z" glyph-name="multiply" horiz-adv-x="500" unicode="&#215;" /><glyph d="M30 410C110 440 121 421 121 340V90C121 20 20 30 20 30V0H280V30C280 30 180 20 180 90V280C180 361 250 450 330 450C380 450 430 421 430 340V90C430 20 330 30 330 30V0H590V30C590 30 490 20 490 90V400C490 461 450 510 370 510C300 510 240 461 170 350L210 510L20 440Z" glyph-name="n" horiz-adv-x="600" unicode="n" /><glyph d="M377 790 206 601 226 580 396 771ZM30 410C110 440 121 421 121 340V90C121 20 20 30 20 30V0H280V30C280 30 180 20 180 90V280C180 361 250 450 330 450C380 450 430 421 430 340V90C430 20 330 30 330 30V0H590V30C590 30 490 20 490 90V400C490 461 450 510 370 510C300 510 240 461 170 350L210 510L20 440Z" glyph-name="nacute" horiz-adv-x="600" unicode="&#324;" /><glyph d="M301 580 471 769 450 790 301 620 150 790 130 769ZM30 410C110 440 121 421 121 340V90C121 20 20 30 20 30V0H280V30C280 30 180 20 180 90V280C180 361 250 450 330 450C380 450 430 421 430 340V90C430 20 330 30 330 30V0H590V30C590 30 490 20 490 90V400C490 461 450 510 370 510C300 510 240 461 170 350L210 510L20 440Z" glyph-name="ncaron" horiz-adv-x="600" unicode="&#328;" /><glyph d="M280 -10C450 -10 561 160 561 391C561 620 450 790 280 790C160 790 50 680 50 531C50 370 150 270 280 270C400 270 455 349 480 420C480 410 480 401 480 391C480 180 420 40 270 40C110 40 90 200 90 200L70 190C70 190 90 -10 280 -10ZM130 531C130 670 190 760 291 760C390 760 448 667 470 529C469 506 461 300 300 300C200 300 130 400 130 531Z" glyph-name="nine" horiz-adv-x="600" unicode="9" /><glyph d="M140 701C140 701 150 631 221 631C290 631 330 690 391 690C450 690 461 631 461 631L470 650C470 650 461 720 391 720C330 720 290 661 221 661C160 661 150 720 150 720ZM30 410C110 440 121 421 121 340V90C121 20 20 30 20 30V0H280V30C280 30 180 20 180 90V280C180 361 250 450 330 450C380 450 430 421 430 340V90C430 20 330 30 330 30V0H590V30C590 30 490 20 490 90V400C490 461 450 510 370 510C300 510 240 461 170 350L210 510L20 440Z" glyph-name="ntilde" horiz-adv-x="600" unicode="&#241;" /><glyph d="M0 170H170V-110H200V170H400V-110H430V170H601V200H430V470H601V500H430V780H400V500H200V780H170V500H0V470H170V200H0ZM200 200V470H400V200Z" glyph-name="numbersign" horiz-adv-x="600" unicode="#" /><glyph d="M40 250C40 100 150 -10 300 -10C450 -10 561 100 561 250C561 400 450 510 300 510C150 510 40 400 40 250ZM121 250C121 391 190 480 310 480C420 480 480 380 480 250C480 110 410 20 291 20C180 20 121 121 121 250Z" glyph-name="o" horiz-adv-x="600" unicode="o" /><glyph d="M376 790 205 601 225 580 395 771ZM40 250C40 100 150 -10 300 -10C450 -10 561 100 561 250C561 400 450 510 300 510C150 510 40 400 40 250ZM121 250C121 391 190 480 310 480C420 480 480 380 480 250C480 110 410 20 291 20C180 20 121 121 121 250Z" glyph-name="oacute" horiz-adv-x="600" unicode="&#243;" /><glyph d="M191 790H171C171 708 211 630 301 630C391 630 431 708 431 790H411C411 725 371 660 301 660C231 660 191 725 191 790ZM40 250C40 100 150 -10 300 -10C450 -10 561 100 561 250C561 400 450 510 300 510C150 510 40 400 40 250ZM121 250C121 391 190 480 310 480C420 480 480 380 480 250C480 110 410 20 291 20C180 20 121 121 121 250Z" glyph-name="obreve" horiz-adv-x="600" unicode="&#335;" /><glyph d="M130 601 150 580 301 750 450 580 471 601 301 790ZM40 250C40 100 150 -10 300 -10C450 -10 561 100 561 250C561 400 450 510 300 510C150 510 40 400 40 250ZM121 250C121 391 190 480 310 480C420 480 480 380 480 250C480 110 410 20 291 20C180 20 121 121 121 250Z" glyph-name="ocircumflex" horiz-adv-x="600" unicode="&#244;" /><glyph d="M140 680C140 640 170 620 200 620C230 620 260 640 260 680C260 720 230 740 200 740C171 740 140 720 140 680ZM340 680C340 640 370 620 400 620C430 620 460 640 460 680C460 720 430 740 400 740C371 740 340 720 340 680ZM40 250C40 100 150 -10 300 -10C450 -10 561 100 561 250C561 400 450 510 300 510C150 510 40 400 40 250ZM121 250C121 391 190 480 310 480C420 480 480 380 480 250C480 110 410 20 291 20C180 20 121 121 121 250Z" glyph-name="odieresis" horiz-adv-x="600" unicode="&#246;" /><glyph d="M40 250C40 100 140 -10 280 -10C370 -10 432 41 478 121C518 41 588 -10 670 -10C841 -10 871 180 871 180L850 190C850 190 841 40 690 40C590 40 520 121 520 250C520 260 520 270 521 280H860C860 400 810 510 661 510C579 510 514 459 476 380C431 459 380 510 280 510C150 510 40 400 40 250ZM121 250C121 391 190 480 291 480C377 480 440 380 440 250C440 110 370 20 270 20C180 20 121 121 121 250ZM670 480C780 480 780 350 780 310H523C536 415 585 480 670 480Z" glyph-name="oe" horiz-adv-x="900" unicode="&#339;" /><glyph d="M205 771 376 580 395 601 225 790ZM40 250C40 100 150 -10 300 -10C450 -10 561 100 561 250C561 400 450 510 300 510C150 510 40 400 40 250ZM121 250C121 391 190 480 310 480C420 480 480 380 480 250C480 110 410 20 291 20C180 20 121 121 121 250Z" glyph-name="ograve" horiz-adv-x="600" unicode="&#242;" /><glyph d="M336 790 165 601 185 580 355 771ZM536 790 365 601 385 580 555 771ZM40 250C40 100 150 -10 300 -10C450 -10 561 100 561 250C561 400 450 510 300 510C150 510 40 400 40 250ZM121 250C121 391 190 480 310 480C420 480 480 380 480 250C480 110 410 20 291 20C180 20 121 121 121 250Z" glyph-name="ohungarumlaut" horiz-adv-x="600" unicode="&#337;" /><glyph d="M140 660H461V690H140ZM40 250C40 100 150 -10 300 -10C450 -10 561 100 561 250C561 400 450 510 300 510C150 510 40 400 40 250ZM121 250C121 391 190 480 310 480C420 480 480 380 480 250C480 110 410 20 291 20C180 20 121 121 121 250Z" glyph-name="omacron" horiz-adv-x="600" unicode="&#333;" /><glyph d="M50 620 60 590 130 631C188 665 221 661 221 590V90C221 20 20 30 20 30V0H480V30C480 30 280 20 280 90V780Z" glyph-name="one" horiz-adv-x="500" unicode="1" /><glyph d="M470 790 10 10 30 -10 490 771ZM15 710 20 695 55 715C84 732 100 730 100 695V445C100 410 0 415 0 415V400H230V415C230 415 130 410 130 445V790ZM360 395C275 395 235 318 235 290C235 275 246 270 255 270C278 270 280 295 280 315C280 350 295 380 355 380C420 380 450 345 450 285C450 161 240 80 230 0H445L470 -5L500 110L490 115C490 115 455 25 360 25H280C265 25 265 34 275 45C338 121 490 165 490 284C490 350 445 395 360 395Z" glyph-name="onehalf" horiz-adv-x="500" unicode="&#189;" /><glyph d="M470 790 10 10 30 -10 490 771ZM15 710 20 695 55 715C84 732 100 730 100 695V445C100 410 0 415 0 415V400H230V415C230 415 130 410 130 445V790ZM185 105H365V45C365 10 290 15 290 15V0H470V15C470 15 395 10 395 45V105H500V130C500 130 458 129 395 127V395L185 125ZM355 307C359 313 365 317 365 307V127C319 126 265 125 208 125Z" glyph-name="onequarter" horiz-adv-x="500" unicode="&#188;" /><glyph d="M40 250C40 150 89 67 167 24L60 -180L80 -200L191 12C223 -2 260 -10 300 -10C450 -10 561 100 561 250C561 350 511 433 433 477L540 681L520 700L409 488C376 502 340 510 300 510C150 510 40 400 40 250ZM121 250C121 391 190 480 310 480C342 480 370 472 393 457L186 61C143 102 121 171 121 250ZM480 250C480 110 410 20 291 20C259 20 231 29 207 44L414 440C457 399 480 330 480 250Z" glyph-name="oslash" horiz-adv-x="600" unicode="&#248;" /><glyph d="M135 701C135 701 145 631 216 631C285 631 325 690 386 690C445 690 456 631 456 631L465 650C465 650 456 720 386 720C325 720 285 661 216 661C155 661 145 720 145 720ZM40 250C40 100 150 -10 300 -10C450 -10 561 100 561 250C561 400 450 510 300 510C150 510 40 400 40 250ZM121 250C121 391 190 480 310 480C420 480 480 380 480 250C480 110 410 20 291 20C180 20 121 121 121 250Z" glyph-name="otilde" horiz-adv-x="600" unicode="&#245;" /><glyph d="M30 410C110 440 121 421 121 340V-130C121 -200 20 -190 20 -190V-220H280V-190C280 -190 180 -200 180 -130V68C205 29 247 -10 330 -10C451 -10 561 100 561 250C561 410 461 510 350 510C233 510 193 413 170 350L200 510L20 440ZM180 280C180 310 200 470 330 470C420 470 480 380 480 250C480 110 420 20 320 20C243 20 190 70 180 150Z" glyph-name="p" horiz-adv-x="600" unicode="p" /><glyph d="M330 750H420V-110H450V750H590V780H215C113 780 30 698 30 596C30 494 113 410 215 410H300V-110H330Z" glyph-name="paragraph" horiz-adv-x="600" unicode="&#182;" /><glyph d="M490 771 480 790C260 790 40 620 40 340C40 60 260 -110 480 -110L490 -90C291 -90 90 80 90 340C90 601 291 771 490 771Z" glyph-name="parenleft" horiz-adv-x="500" unicode="(" /><glyph d="M10 -90 20 -110C240 -110 461 60 461 340C461 620 240 790 20 790L10 771C210 771 410 601 410 340C410 80 210 -90 10 -90Z" glyph-name="parenright" horiz-adv-x="500" unicode=")" /><glyph d="M620 790 210 10 230 -10 640 771ZM450 610C450 710 370 790 270 790C180 790 110 720 110 610C110 510 190 430 291 430C380 430 450 500 450 610ZM400 610C400 510 340 461 280 461C221 461 160 520 160 610C160 710 221 760 280 760C340 760 400 710 400 610ZM740 170C740 270 661 350 561 350C470 350 400 280 400 170C400 70 480 -10 580 -10C670 -10 740 60 740 170ZM690 170C690 70 631 20 570 20C510 20 450 80 450 170C450 270 510 320 570 320C631 320 690 270 690 170Z" glyph-name="percent" horiz-adv-x="800" unicode="%" /><glyph d="M90 50C90 10 121 -10 150 -10C180 -10 210 10 210 50C210 90 180 110 150 110C121 110 90 90 90 50Z" glyph-name="period" horiz-adv-x="300" unicode="." /><glyph d="M90 320C90 280 121 260 150 260C180 260 210 280 210 320C210 361 180 380 150 380C121 380 90 361 90 320Z" glyph-name="periodcentered" horiz-adv-x="300" unicode="&#183;" /><glyph d="M550 790 140 10 160 -10 570 771ZM380 610C380 710 300 790 200 790C110 790 40 720 40 610C40 510 120 430 221 430C310 430 380 500 380 610ZM330 610C330 510 270 461 210 461C151 461 90 520 90 610C90 710 151 760 210 760C270 760 330 710 330 610ZM960 170C960 270 881 350 781 350C721 350 670 319 642 267C611 317 555 350 491 350C400 350 330 280 330 170C330 70 410 -10 510 -10C570 -10 620 21 648 73C680 23 736 -10 800 -10C890 -10 960 60 960 170ZM620 170C620 70 561 20 500 20C440 20 380 80 380 170C380 270 440 320 500 320C561 320 620 270 620 170ZM910 170C910 70 851 20 790 20C730 20 670 80 670 170C670 270 730 320 790 320C851 320 910 270 910 170Z" glyph-name="perthousand" horiz-adv-x="1000" unicode="&#8240;" /><glyph d="M265 105V300H461V330H265V526H235V330H40V300H235V105Z" glyph-name="plus" horiz-adv-x="500" unicode="+" /><glyph d="M265 105V300H461V330H265V526H235V330H40V300H235V105ZM40 0H461V30H40Z" glyph-name="plusminus" horiz-adv-x="500" unicode="&#177;" /><glyph d="M420 -130C420 -200 320 -190 320 -190V-220H580V-190C580 -190 480 -200 480 -130V510L426 425C402 460 355 510 265 510C144 510 39 405 39 240C39 80 145 -10 250 -10C356 -10 397 64 420 124ZM420 220C420 190 406 30 276 30C186 30 120 110 120 250C120 390 175 480 275 480C352 480 410 426 420 356Z" glyph-name="q" horiz-adv-x="600" unicode="q" /><glyph d="M300 790C110 790 40 627 40 580C40 550 63 540 80 540C127 540 130 590 130 631C130 710 170 760 300 760C410 760 490 690 490 580C490 391 280 462 280 270V221H310V270C310 381 540 341 540 580C540 690 461 790 300 790ZM235 50C235 10 265 -10 295 -10C326 -10 356 10 356 50C356 90 326 110 295 110C266 110 235 90 235 50Z" glyph-name="question" horiz-adv-x="600" unicode="?" /><glyph d="M345 630C345 670 315 690 285 690C254 690 224 670 224 630C224 590 254 570 285 570C314 570 345 590 345 630ZM280 -110C470 -110 540 53 540 100C540 130 517 140 500 140C453 140 450 90 450 49C450 -30 410 -80 280 -80C170 -80 90 -10 90 100C90 289 300 218 300 410V459H270V410C270 299 40 339 40 100C40 -10 119 -110 280 -110Z" glyph-name="questiondown" horiz-adv-x="600" unicode="&#191;" /><glyph d="M86 520H115V780H86ZM185 520H215V780H185Z" glyph-name="quotedbl" horiz-adv-x="300" unicode="&quot;" /><glyph d="M291 51C291 15 314 -4 335 -4C361 -4 370 10 370 10L275 -149L295 -160L400 16C406 24 410 35 410 51C410 91 380 110 350 110C322 110 291 91 291 51ZM90 51C90 15 114 -4 135 -4C161 -4 170 10 170 10L75 -149L95 -160L200 16C206 24 210 35 210 51C210 91 180 110 150 110C121 110 90 91 90 51Z" glyph-name="quotedblbase" horiz-adv-x="500" unicode="&#8222;" /><glyph d="M210 580C210 616 187 635 165 635C139 635 130 620 130 620L225 780L205 790L100 615C94 606 90 596 90 580C90 540 121 520 150 520C179 520 210 540 210 580ZM410 580C410 616 386 635 365 635C339 635 330 620 330 620L426 780L405 790L300 615C294 606 291 596 291 580C291 540 320 520 350 520C379 520 410 540 410 580Z" glyph-name="quotedblleft" horiz-adv-x="500" unicode="&#8220;" /><glyph d="M291 731C291 695 314 676 335 676C361 676 370 690 370 690L275 531L295 520L400 696C406 704 410 715 410 731C410 771 380 790 350 790C322 790 291 771 291 731ZM90 731C90 695 114 676 135 676C161 676 170 690 170 690L75 531L95 520L200 696C206 704 210 715 210 731C210 771 180 790 150 790C121 790 90 771 90 731Z" glyph-name="quotedblright" horiz-adv-x="500" unicode="&#8221;" /><glyph d="M210 580C210 616 187 635 165 635C139 635 130 620 130 620L225 780L205 790L100 615C94 606 90 596 90 580C90 540 121 520 150 520C179 520 210 540 210 580Z" glyph-name="quoteleft" horiz-adv-x="300" unicode="&#8216;" /><glyph d="M90 731C90 695 114 676 135 676C161 676 170 690 170 690L75 531L95 520L200 696C206 704 210 715 210 731C210 771 180 790 150 790C121 790 90 771 90 731Z" glyph-name="quoteright" horiz-adv-x="300" unicode="&#8217;" /><glyph d="M90 50C90 14 114 -4 135 -4C161 -4 170 10 170 10L75 -150L95 -160L200 15C206 24 210 35 210 50C210 90 180 110 150 110C121 110 90 90 90 50Z" glyph-name="quotesinglbase" horiz-adv-x="300" unicode="&#8218;" /><glyph d="M86 520H115V780H86Z" glyph-name="quotesingle" horiz-adv-x="200" unicode="'" /><glyph d="M180 361C180 361 230 430 310 430C350 430 350 420 370 420C395 420 410 440 410 470C410 500 380 510 361 510C310 510 240 450 170 380L210 510L20 440L30 410C110 440 121 431 121 340V90C121 20 20 30 20 30V0H291V30C291 30 180 20 180 90Z" glyph-name="r" horiz-adv-x="400" unicode="r" /><glyph d="M286 790 115 601 135 580 305 771ZM180 361C180 361 230 430 310 430C350 430 350 420 370 420C395 420 410 440 410 470C410 500 380 510 361 510C310 510 240 450 170 380L210 510L20 440L30 410C110 440 121 431 121 340V90C121 20 20 30 20 30V0H291V30C291 30 180 20 180 90Z" glyph-name="racute" horiz-adv-x="400" unicode="&#341;" /><glyph d="M201 580 371 769 350 790 201 620 50 790 30 769ZM180 361C180 361 230 430 310 430C350 430 350 420 370 420C395 420 410 440 410 470C410 500 380 510 361 510C310 510 240 450 170 380L210 510L20 440L30 410C110 440 121 431 121 340V90C121 20 20 30 20 30V0H291V30C291 30 180 20 180 90Z" glyph-name="rcaron" horiz-adv-x="400" unicode="&#345;" /><glyph d="M50 391C50 169 229 -10 450 -10C671 -10 850 169 850 391C850 611 671 790 450 790C229 790 50 611 50 391ZM80 391C80 595 246 760 450 760C654 760 820 595 820 391C820 301 788 219 735 155L497 376C584 381 670 422 670 515C670 615 580 650 461 650H221V625C221 625 320 634 320 591V198C320 160 221 165 221 165V140H470V165C470 165 370 160 370 198V375H426L721 138C653 66 557 20 450 20C246 20 80 187 80 391ZM370 625H461C540 625 605 596 605 515C605 426 531 400 459 400H370Z" glyph-name="registered" horiz-adv-x="900" unicode="&#174;" /><glyph d="M461 701C461 762 411 801 350 801C290 801 240 762 240 701C240 639 290 601 350 601C411 601 461 639 461 701ZM420 701C420 656 395 620 350 620C306 620 280 656 280 701C280 744 306 780 350 780C395 780 420 744 420 701Z" glyph-name="ring" horiz-adv-x="834" unicode="&#730;" /><glyph d="M470 710C470 781 421 831 350 831C279 831 230 781 230 710C230 639 279 590 350 590C421 590 470 639 470 710ZM430 710C430 656 404 610 350 610C296 610 270 656 270 710C270 765 296 810 350 810C404 810 430 765 430 710Z" glyph-name="ring.case" horiz-adv-x="834" /><glyph d="M30 370C100 430 121 391 121 340V90C121 20 20 30 20 30V0H291V30C291 30 182 20 180 90V361C190 410 227 470 293 470H450V150C450 50 500 -10 585 -10C700 -10 740 130 750 190L730 200C730 200 720 40 600 40C530 40 510 90 510 170V470H711V500H510V731H480C480 539 410 500 350 500H304C234 500 190 440 170 380L210 510L20 400Z" glyph-name="rt" horiz-adv-x="720" unicode="&#64261;" /><glyph d="M410 320 430 330 361 510 320 461C320 461 270 510 195 510C100 510 50 450 50 380C50 280 150 258 242 230C320 206 391 189 391 115C391 70 361 30 280 30C140 30 50 200 50 200L30 190L100 -10L140 50C140 50 200 -10 290 -10C391 -10 450 50 450 130C450 245 348 268 256 294C180 316 110 332 110 400C110 440 140 480 200 480C320 480 410 320 410 320Z" glyph-name="s" horiz-adv-x="500" unicode="s" /><glyph d="M326 790 155 601 175 580 345 771ZM410 320 430 330 361 510 320 461C320 461 270 510 195 510C100 510 50 450 50 380C50 280 150 258 242 230C320 206 391 189 391 115C391 70 361 30 280 30C140 30 50 200 50 200L30 190L100 -10L140 50C140 50 200 -10 290 -10C391 -10 450 50 450 130C450 245 348 268 256 294C180 316 110 332 110 400C110 440 140 480 200 480C320 480 410 320 410 320Z" glyph-name="sacute" horiz-adv-x="500" unicode="&#347;" /><glyph d="M251 580 421 769 400 790 251 620 100 790 80 769ZM410 320 430 330 361 510 320 461C320 461 270 510 195 510C100 510 50 450 50 380C50 280 150 258 242 230C320 206 391 189 391 115C391 70 361 30 280 30C140 30 50 200 50 200L30 190L100 -10L140 50C140 50 200 -10 290 -10C391 -10 450 50 450 130C450 245 348 268 256 294C180 316 110 332 110 400C110 440 140 480 200 480C320 480 410 320 410 320Z" glyph-name="scaron" horiz-adv-x="500" unicode="&#353;" /><glyph d="M80 601 100 580 251 750 400 580 421 601 251 790ZM410 320 430 330 361 510 320 461C320 461 270 510 195 510C100 510 50 450 50 380C50 280 150 258 242 230C320 206 391 189 391 115C391 70 361 30 280 30C140 30 50 200 50 200L30 190L100 -10L140 50C140 50 200 -10 290 -10C391 -10 450 50 450 130C450 245 348 268 256 294C180 316 110 332 110 400C110 440 140 480 200 480C320 480 410 320 410 320Z" glyph-name="scircumflex" horiz-adv-x="500" unicode="&#349;" /><glyph d="M370 14C370 -50 330 -90 250 -90C109 -90 90 50 90 50L70 30C70 30 85 -120 255 -120C355 -120 420 -60 420 20C420 131 300 170 300 170C361 170 440 215 440 310C440 520 130 475 130 656C130 720 170 760 250 760C391 760 410 620 410 620L430 640C430 640 415 790 245 790C145 790 80 730 80 650C80 540 200 500 200 500C140 500 60 455 60 361C60 150 370 194 370 14ZM391 310C391 240 350 200 270 200C200 200 110 260 110 361C110 430 150 470 230 470C300 470 391 410 391 310Z" glyph-name="section" horiz-adv-x="500" unicode="&#167;" /><glyph d="M90 450C90 410 121 391 150 391C180 391 210 410 210 450C210 490 180 510 150 510C121 510 90 490 90 450ZM90 50C90 14 114 -4 135 -4C161 -4 170 10 170 10L75 -150L95 -160L200 15C206 24 210 35 210 50C210 90 180 110 150 110C121 110 90 90 90 50Z" glyph-name="semicolon" horiz-adv-x="300" unicode=";" /><glyph d="M300 40C300 500 570 780 570 780H150L100 790L40 631L60 620C60 620 121 731 270 731H420C450 731 461 719 461 701C461 662 210 240 210 60C210 20 221 -10 250 -10C291 -10 300 20 300 40Z" glyph-name="seven" horiz-adv-x="600" unicode="7" /><glyph d="M320 760C420 760 461 701 461 640C461 601 464 550 510 550C528 550 550 561 550 590C550 697 461 790 330 790C140 790 40 620 40 391C40 160 150 -10 320 -10C440 -10 550 100 550 250C550 410 450 510 320 510C201 510 147 433 121 363C121 372 121 382 121 391C121 601 180 760 320 760ZM300 480C400 480 470 380 470 250C470 110 410 20 310 20C209 20 151 116 130 257C132 295 148 480 300 480Z" glyph-name="six" horiz-adv-x="600" unicode="6" /><glyph d="M470 790 10 -90 30 -110 490 771Z" glyph-name="slash" horiz-adv-x="500" unicode="/" /><glyph glyph-name="space" horiz-adv-x="400" unicode=" " /><glyph d="M0 370H130V260C130 111 100 60 40 10L50 -10C80 20 130 60 200 60C310 60 310 -10 430 -10C550 -10 601 121 601 121L580 130C580 130 550 40 480 40C400 40 350 110 260 110C190 110 170 80 155 80C150 80 144 82 150 90C190 140 194 180 194 270V370H430L440 400H194V568C194 679 230 760 330 760C380 760 440 740 440 670C440 631 443 580 490 580C507 580 531 590 531 620C531 667 461 790 310 790C200 790 130 700 130 580V400H10Z" glyph-name="sterling" horiz-adv-x="600" unicode="&#163;" /><glyph d="M0 470H130V150C130 50 180 -10 265 -10C380 -10 420 130 430 190L410 200C410 200 400 40 280 40C210 40 190 90 190 170V470H391V500H190V731H160C160 539 90 500 30 500H0Z" glyph-name="t" horiz-adv-x="400" unicode="t" /><glyph d="M290 731C290 695 314 676 335 676C361 676 370 690 370 690L275 531L295 520L400 696C406 704 410 715 410 731C410 771 380 790 350 790C321 790 290 771 290 731ZM0 470H130V150C130 50 180 -10 265 -10C380 -10 420 130 430 190L410 200C410 200 400 40 280 40C210 40 190 90 190 170V470H391V500H190V731H160C160 539 90 500 30 500H0Z" glyph-name="tcaron" horiz-adv-x="400" unicode="&#357;" /><glyph glyph-name="thinspace" horiz-adv-x="100" unicode="&#8201;" /><glyph d="M121 -130C121 -200 20 -190 20 -190V-220H280V-190C280 -190 180 -200 180 -130V75C206 26 254 -10 340 -10C461 -10 561 100 561 250C561 410 461 510 350 510C256 510 207 447 180 381V790L20 680L30 650C100 710 121 670 121 620ZM180 280C180 310 200 480 330 480C410 480 480 380 480 250C480 110 420 20 330 20C253 20 190 65 180 160Z" glyph-name="thorn" horiz-adv-x="600" unicode="&#254;" /><glyph d="M561 200C561 400 346 402 340 402C330 402 330 410 340 412C345 413 520 440 520 601C520 701 450 790 300 790C140 790 70 646 70 590C70 561 93 550 110 550C157 550 160 601 160 640C160 710 190 760 291 760C400 760 440 680 440 590C440 461 361 420 240 420H180V391H240C361 391 480 361 480 200C480 100 400 40 291 40C80 40 60 230 60 230L40 221C40 130 110 -10 300 -10C461 -10 561 80 561 200Z" glyph-name="three" horiz-adv-x="600" unicode="3" /><glyph d="M470 790 10 10 30 -10 490 771ZM260 495C260 595 153 596 150 596C145 596 145 600 150 601C152 601 240 615 240 695C240 745 205 790 130 790C50 790 15 718 15 690C15 675 26 670 35 670C58 670 60 695 60 715C60 750 75 775 125 775C180 775 200 735 200 690C200 625 160 605 100 605H70V590H100C160 590 220 575 220 495C220 445 180 415 125 415C20 415 10 510 10 510L0 505C0 460 35 390 130 390C210 390 260 435 260 495ZM185 105H365V45C365 10 290 15 290 15V0H470V15C470 15 395 10 395 45V105H500V130C500 130 458 129 395 127V395L185 125ZM355 307C359 313 365 317 365 307V127C319 126 265 125 208 125Z" glyph-name="threequarters" horiz-adv-x="500" unicode="&#190;" /><glyph d="M40 701C40 701 50 631 121 631C190 631 230 690 291 690C350 690 361 631 361 631L370 650C370 650 361 720 291 720C230 720 190 661 121 661C60 661 50 720 50 720Z" glyph-name="tilde" horiz-adv-x="400" unicode="&#732;" /><glyph d="M40 941C40 941 50 871 121 871C190 871 230 931 291 931C350 931 361 871 361 871L370 890C370 890 361 960 291 960C230 960 190 901 121 901C60 901 50 960 50 960Z" glyph-name="tilde.case" horiz-adv-x="400" /><glyph d="M270 790C100 790 20 636 20 580C20 550 43 540 60 540C107 540 110 590 110 631C110 701 140 760 260 760C391 760 450 690 450 570C450 322 30 160 10 0H440L490 -10L550 221L531 230C531 230 461 50 270 50H110C80 50 81 68 100 90C227 243 531 330 531 569C531 701 440 790 270 790Z" glyph-name="two" horiz-adv-x="600" unicode="2" /><glyph d="M100 140C100 60 140 -10 240 -10C320 -10 380 40 430 150L410 -10L580 30V60C580 60 480 20 480 90V500H330V470C330 470 420 480 420 410V221C420 130 370 50 270 50C210 50 160 79 160 170V500H10V470C10 470 100 480 100 410Z" glyph-name="u" horiz-adv-x="600" unicode="u" /><glyph d="M376 790 205 601 225 580 395 771ZM100 140C100 60 140 -10 240 -10C320 -10 380 40 430 150L410 -10L580 30V60C580 60 480 20 480 90V500H330V470C330 470 420 480 420 410V221C420 130 370 50 270 50C210 50 160 79 160 170V500H10V470C10 470 100 480 100 410Z" glyph-name="uacute" horiz-adv-x="600" unicode="&#250;" /><glyph d="M171 790H151C151 708 191 630 281 630C371 630 411 708 411 790H391C391 725 351 660 281 660C211 660 171 725 171 790ZM100 140C100 60 140 -10 240 -10C320 -10 380 40 430 150L410 -10L580 30V60C580 60 480 20 480 90V500H330V470C330 470 420 480 420 410V221C420 130 370 50 270 50C210 50 160 79 160 170V500H10V470C10 470 100 480 100 410Z" glyph-name="ubreve" horiz-adv-x="600" unicode="&#365;" /><glyph d="M130 601 150 580 301 750 450 580 471 601 301 790ZM100 140C100 60 140 -10 240 -10C320 -10 380 40 430 150L410 -10L580 30V60C580 60 480 20 480 90V500H330V470C330 470 420 480 420 410V221C420 130 370 50 270 50C210 50 160 79 160 170V500H10V470C10 470 100 480 100 410Z" glyph-name="ucircumflex" horiz-adv-x="600" unicode="&#251;" /><glyph d="M140 680C140 640 170 620 200 620C230 620 260 640 260 680C260 720 230 740 200 740C171 740 140 720 140 680ZM340 680C340 640 370 620 400 620C430 620 460 640 460 680C460 720 430 740 400 740C371 740 340 720 340 680ZM100 140C100 60 140 -10 240 -10C320 -10 380 40 430 150L410 -10L580 30V60C580 60 480 20 480 90V500H330V470C330 470 420 480 420 410V221C420 130 370 50 270 50C210 50 160 79 160 170V500H10V470C10 470 100 480 100 410Z" glyph-name="udieresis" horiz-adv-x="600" unicode="&#252;" /><glyph d="M205 771 376 580 395 601 225 790ZM100 140C100 60 140 -10 240 -10C320 -10 380 40 430 150L410 -10L580 30V60C580 60 480 20 480 90V500H330V470C330 470 420 480 420 410V221C420 130 370 50 270 50C210 50 160 79 160 170V500H10V470C10 470 100 480 100 410Z" glyph-name="ugrave" horiz-adv-x="600" unicode="&#249;" /><glyph d="M306 790 135 601 155 580 325 771ZM506 790 335 601 355 580 525 771ZM100 140C100 60 140 -10 240 -10C320 -10 380 40 430 150L410 -10L580 30V60C580 60 480 20 480 90V500H330V470C330 470 420 480 420 410V221C420 130 370 50 270 50C210 50 160 79 160 170V500H10V470C10 470 100 480 100 410Z" glyph-name="uhungarumlaut" horiz-adv-x="600" unicode="&#369;" /><glyph d="M110 660H431V690H110ZM100 140C100 60 140 -10 240 -10C320 -10 380 40 430 150L410 -10L580 30V60C580 60 480 20 480 90V500H330V470C330 470 420 480 420 410V221C420 130 370 50 270 50C210 50 160 79 160 170V500H10V470C10 470 100 480 100 410Z" glyph-name="umacron" horiz-adv-x="600" unicode="&#363;" /><glyph d="M20 -110H580V-80H20Z" glyph-name="underscore" horiz-adv-x="600" unicode="_" /><glyph d="M381 690C381 751 331 790 270 790C210 790 160 751 160 690C160 628 210 590 270 590C331 590 381 628 381 690ZM340 690C340 645 315 609 270 609C226 609 200 645 200 690C200 733 226 769 270 769C315 769 340 733 340 690ZM100 140C100 60 140 -10 240 -10C320 -10 380 40 430 150L410 -10L580 30V60C580 60 480 20 480 90V500H330V470C330 470 420 480 420 410V221C420 130 370 50 270 50C210 50 160 79 160 170V500H10V470C10 470 100 480 100 410Z" glyph-name="uring" horiz-adv-x="600" unicode="&#367;" /><glyph d="M135 701C135 701 145 631 216 631C285 631 325 690 386 690C445 690 456 631 456 631L465 650C465 650 456 720 386 720C325 720 285 661 216 661C155 661 145 720 145 720ZM100 140C100 60 140 -10 240 -10C320 -10 380 40 430 150L410 -10L580 30V60C580 60 480 20 480 90V500H330V470C330 470 420 480 420 410V221C420 130 370 50 270 50C210 50 160 79 160 170V500H10V470C10 470 100 480 100 410Z" glyph-name="utilde" horiz-adv-x="600" unicode="&#361;" /><glyph d="M80 420 250 0 410 400C436 466 461 470 520 470V500H291V470C350 470 405 467 380 400L270 105L150 410C121 484 230 470 230 470V500H-10V470C-10 470 56 480 80 420Z" glyph-name="v" horiz-adv-x="500" unicode="v" /><glyph d="M70 420 221 0 349 366 480 0 620 400C642 467 670 470 720 470V500H520V470C570 470 610 468 590 400L501 116L400 410C374 485 490 470 490 470V500H250V470C250 470 307 481 330 420L334 408L241 115L140 410C114 485 221 470 221 470V500H-20V470C-20 470 49 482 70 420Z" glyph-name="w" horiz-adv-x="700" unicode="w" /><glyph d="M427 790 256 601 276 580 446 771ZM70 420 221 0 349 366 480 0 620 400C642 467 670 470 720 470V500H520V470C570 470 610 468 590 400L501 116L400 410C374 485 490 470 490 470V500H250V470C250 470 307 481 330 420L334 408L241 115L140 410C114 485 221 470 221 470V500H-20V470C-20 470 49 482 70 420Z" glyph-name="wacute" horiz-adv-x="700" unicode="&#7811;" /><glyph d="M180 601 200 580 351 750 500 580 521 601 351 790ZM70 420 221 0 349 366 480 0 620 400C642 467 670 470 720 470V500H520V470C570 470 610 468 590 400L501 116L400 410C374 485 490 470 490 470V500H250V470C250 470 307 481 330 420L334 408L241 115L140 410C114 485 221 470 221 470V500H-20V470C-20 470 49 482 70 420Z" glyph-name="wcircumflex" horiz-adv-x="700" unicode="&#373;" /><glyph d="M190 680C190 640 220 620 250 620C280 620 310 640 310 680C310 720 280 740 250 740C221 740 190 720 190 680ZM390 680C390 640 420 620 450 620C480 620 510 640 510 680C510 720 480 740 450 740C421 740 390 720 390 680ZM70 420 221 0 349 366 480 0 620 400C642 467 670 470 720 470V500H520V470C570 470 610 468 590 400L501 116L400 410C374 485 490 470 490 470V500H250V470C250 470 307 481 330 420L334 408L241 115L140 410C114 485 221 470 221 470V500H-20V470C-20 470 49 482 70 420Z" glyph-name="wdieresis" horiz-adv-x="700" unicode="&#7813;" /><glyph d="M256 771 427 580 446 601 276 790ZM70 420 221 0 349 366 480 0 620 400C642 467 670 470 720 470V500H520V470C570 470 610 468 590 400L501 116L400 410C374 485 490 470 490 470V500H250V470C250 470 307 481 330 420L334 408L241 115L140 410C114 485 221 470 221 470V500H-20V470C-20 470 49 482 70 420Z" glyph-name="wgrave" horiz-adv-x="700" unicode="&#7809;" /><glyph d="M204 100 295 221 391 90C444 15 330 30 330 30V0H580V30C580 30 516 18 470 80L332 270L430 400C482 470 510 470 570 470V500H340V470C400 470 447 470 395 400L315 293L230 410C176 485 291 470 291 470V500H40V470C40 470 104 483 150 420L278 244L170 100C117 29 90 30 30 30V0H260V30C200 30 151 29 204 100Z" glyph-name="x" horiz-adv-x="600" unicode="x" /><glyph d="M80 420 235 41 190 -80C156 -172 121 -180 90 -180C30 -180 30 -130 -20 -130C-45 -130 -60 -147 -60 -174C-60 -212 -20 -230 30 -230C121 -230 176 -201 221 -80L400 400C426 466 450 470 510 470V500H280V470C340 470 395 466 370 400L268 127L150 420C124 486 230 470 230 470V500H-10V470C-10 470 55 480 80 420Z" glyph-name="y" horiz-adv-x="500" unicode="y" /><glyph d="M326 790 155 601 175 580 345 771ZM80 420 235 41 190 -80C156 -172 121 -180 90 -180C30 -180 30 -130 -20 -130C-45 -130 -60 -147 -60 -174C-60 -212 -20 -230 30 -230C121 -230 176 -201 221 -80L400 400C426 466 450 470 510 470V500H280V470C340 470 395 466 370 400L268 127L150 420C124 486 230 470 230 470V500H-10V470C-10 470 55 480 80 420Z" glyph-name="yacute" horiz-adv-x="500" unicode="&#253;" /><glyph d="M80 601 100 580 251 750 400 580 421 601 251 790ZM80 420 235 41 190 -80C156 -172 121 -180 90 -180C30 -180 30 -130 -20 -130C-45 -130 -60 -147 -60 -174C-60 -212 -20 -230 30 -230C121 -230 176 -201 221 -80L400 400C426 466 450 470 510 470V500H280V470C340 470 395 466 370 400L268 127L150 420C124 486 230 470 230 470V500H-10V470C-10 470 55 480 80 420Z" glyph-name="ycircumflex" horiz-adv-x="500" unicode="&#375;" /><glyph d="M90 680C90 640 120 620 150 620C180 620 210 640 210 680C210 720 180 740 150 740C121 740 90 720 90 680ZM290 680C290 640 320 620 350 620C380 620 410 640 410 680C410 720 380 740 350 740C321 740 290 720 290 680ZM80 420 235 41 190 -80C156 -172 121 -180 90 -180C30 -180 30 -130 -20 -130C-45 -130 -60 -147 -60 -174C-60 -212 -20 -230 30 -230C121 -230 176 -201 221 -80L400 400C426 466 450 470 510 470V500H280V470C340 470 395 466 370 400L268 127L150 420C124 486 230 470 230 470V500H-10V470C-10 470 55 480 80 420Z" glyph-name="ydieresis" horiz-adv-x="500" unicode="&#255;" /><glyph d="M190 130H378V90C378 20 230 30 230 30V0H590V30C590 30 442 20 442 90V130H610V160H442V230H610V260H442V300L650 680C684 742 701 755 790 750V780H510V750C601 755 643 742 610 680L431 340L230 690C185 770 340 750 340 750V780H20V750C20 750 114 764 150 701L378 300V260H190V230H378V160H190Z" glyph-name="yen" horiz-adv-x="800" unicode="&#165;" /><glyph d="M461 490V500H180L130 510L70 350L90 340C90 340 150 480 300 480H350C370 480 370 465 361 450L40 10V0H361L410 -10L470 150L450 160C450 160 391 20 200 20H150C130 20 130 35 140 50Z" glyph-name="z" horiz-adv-x="500" unicode="z" /><glyph d="M376 790 205 601 225 580 395 771ZM461 490V500H180L130 510L70 350L90 340C90 340 150 480 300 480H350C370 480 370 465 361 450L40 10V0H361L410 -10L470 150L450 160C450 160 391 20 200 20H150C130 20 130 35 140 50Z" glyph-name="zacute" horiz-adv-x="500" unicode="&#378;" /><glyph d="M291 580 461 769 440 790 291 620 140 790 120 769ZM461 490V500H180L130 510L70 350L90 340C90 340 150 480 300 480H350C370 480 370 465 361 450L40 10V0H361L410 -10L470 150L450 160C450 160 391 20 200 20H150C130 20 130 35 140 50Z" glyph-name="zcaron" horiz-adv-x="500" unicode="&#382;" /><glyph d="M190 660C190 620 221 600 250 600C280 600 310 620 310 660C310 701 280 720 250 720C221 720 190 701 190 660ZM461 490V500H180L130 510L70 350L90 340C90 340 150 480 300 480H350C370 480 370 465 361 450L40 10V0H361L410 -10L470 150L450 160C450 160 391 20 200 20H150C130 20 130 35 140 50Z" glyph-name="zdotaccent" horiz-adv-x="500" unicode="&#380;" /><glyph d="M40 391C40 160 130 -10 300 -10C470 -10 561 160 561 391C561 620 470 790 300 790C130 790 40 620 40 391ZM121 391C121 601 170 760 310 760C440 760 480 601 480 391C480 170 430 20 291 20C160 20 121 180 121 391Z" glyph-name="zero" horiz-adv-x="600" unicode="0" /></font>
</defs>
</svg>
